Inter-BlackItalic.ufo
<glyph name="numbersign" format="2">
  <advance width="1864.0"/>
  <unicode hex="0023"/>
  <note>
1. outline
2. slant 9.4 deg
3. remove extra shapes created by outlining
</note>
  <outline>
    <contour>
      <point x="948.0" y="0.0" type="line"/>
      <point x="1348.0" y="0.0" type="line"/>
      <point x="1720.0" y="2048.0" type="line"/>
      <point x="1320.0" y="2048.0" type="line"/>
    </contour>
    <contour>
      <point x="48.0" y="468.0" type="line"/>
      <point x="1696.0" y="468.0" type="line"/>
      <point x="1772.0" y="868.0" type="line"/>
      <point x="124.0" y="868.0" type="line"/>
    </contour>
    <contour>
      <point x="228.0" y="0.0" type="line"/>
      <point x="628.0" y="0.0" type="line"/>
      <point x="1000.0" y="2048.0" type="line"/>
      <point x="600.0" y="2048.0" type="line"/>
    </contour>
    <contour>
      <point x="178.0" y="1180.0" type="line"/>
      <point x="1826.0" y="1180.0" type="line"/>
      <point x="1900.0" y="1580.0" type="line"/>
      <point x="252.0" y="1580.0" type="line"/>
    </contour>
  </outline>
</glyph>
<glyph name="hyphen" format="2">
  <advance width="1336.0"/>
  <unicode hex="002D"/>
  <outline>
    <contour>
      <point x="1190.0" y="1024.0" type="line"/>
      <point x="230.0" y="1024.0" type="line"/>
      <point x="162.0" y="608.0" type="line"/>
      <point x="1122.0" y="608.0" type="line"/>
    </contour>
  </outline>
</glyph>
<glyph name="two" format="2">
  <advance width="1820.0"/>
  <unicode hex="0032"/>
  <guideline x="2680.0" y="2280.0" angle="0.0"/>
  <guideline x="-78.0" y="764.0" angle="0.0"/>
  <outline>
    <contour>
      <point x="8.0" y="0.0" type="line"/>
      <point x="1580.0" y="0.0" type="line"/>
      <point x="1654.0" y="444.0" type="line"/>
      <point x="854.0" y="444.0" type="line"/>
      <point x="856.0" y="456.0" type="line"/>
      <point x="1074.0" y="616.0" type="line" smooth="yes"/>
      <point x="1606.0" y="1006.0"/>
      <point x="1758.0" y="1208.0"/>
      <point x="1798.0" y="1444.0" type="curve" smooth="yes"/>
      <point x="1863.0" y="1826.0"/>
      <point x="1590.0" y="2076.0"/>
      <point x="1098.0" y="2076.0" type="curve" smooth="yes"/>
      <point x="622.0" y="2076.0"/>
      <point x="268.0" y="1812.0"/>
      <point x="196.0" y="1380.0" type="curve"/>
      <point x="724.0" y="1380.0" type="line"/>
      <point x="752.0" y="1552.0"/>
      <point x="874.0" y="1648.0"/>
      <point x="1028.0" y="1648.0" type="curve" smooth="yes"/>
      <point x="1180.0" y="1648.0"/>
      <point x="1274.0" y="1554.0"/>
      <point x="1248.0" y="1396.0" type="curve" smooth="yes"/>
      <point x="1224.0" y="1252.0"/>
      <point x="1117.0" y="1157.0"/>
      <point x="944.0" y="1032.0" type="curve" smooth="yes"/>
      <point x="74.0" y="400.0" type="line"/>
    </contour>
  </outline>
</glyph>
<glyph name="C" format="2">
  <advance width="2164.0"/>
  <unicode hex="0043"/>
  <guideline x="1624.0" y="1024.0" angle="0.0"/>
  <guideline x="-1390.0" y="0.0" angle="0.0"/>
  <guideline x="936.0" y="584.0" angle="260.6"/>
  <outline>
    <contour>
      <point x="2126.0" y="1280.0" type="line"/>
      <point x="2165.0" y="1788.0"/>
      <point x="1833.0" y="2076.0"/>
      <point x="1298.0" y="2076.0" type="curve" smooth="yes"/>
      <point x="765.0" y="2076.0"/>
      <point x="285.0" y="1728.0"/>
      <point x="174.0" y="1056.0" type="curve"/>
      <point x="61.0" y="360.0"/>
      <point x="433.0" y="-28.0"/>
      <point x="1010.0" y="-28.0" type="curve" smooth="yes"/>
      <point x="1597.0" y="-28.0"/>
      <point x="1953.0" y="392.0"/>
      <point x="2038.0" y="740.0" type="curve"/>
      <point x="1478.0" y="740.0" type="line"/>
      <point x="1421.0" y="568.0"/>
      <point x="1265.0" y="456.0"/>
      <point x="1042.0" y="456.0" type="curve" smooth="yes"/>
      <point x="789.0" y="456.0"/>
      <point x="677.0" y="632.0"/>
      <point x="734.0" y="992.0" type="curve"/>
      <point x="797.0" y="1364.0"/>
      <point x="1001.0" y="1592.0"/>
      <point x="1294.0" y="1592.0" type="curve" smooth="yes"/>
      <point x="1497.0" y="1592.0"/>
      <point x="1585.0" y="1468.0"/>
      <point x="1570.0" y="1280.0" type="curve"/>
    </contour>
  </outline>
</glyph>
<glyph name="G" format="2">
  <advance width="2176.0"/>
  <unicode hex="0047"/>
  <outline>
    <contour>
      <point x="1562.0" y="1372.0" type="curve"/>
      <point x="2124.0" y="1372.0" type="line"/>
      <point x="2150.0" y="1783.0"/>
      <point x="1825.0" y="2076.0"/>
      <point x="1342.0" y="2076.0" type="curve" smooth="yes"/>
      <point x="789.0" y="2076.0"/>
      <point x="278.0" y="1696.0"/>
      <point x="166.0" y="1020.0" type="curve" smooth="yes"/>
      <point x="59.0" y="372.0"/>
      <point x="399.0" y="-28.0"/>
      <point x="996.0" y="-28.0" type="curve" smooth="yes"/>
      <point x="1533.0" y="-28.0"/>
      <point x="1971.0" y="300.0"/>
      <point x="2064.0" y="860.0" type="curve" smooth="yes"/>
      <point x="2110.0" y="1144.0" type="line"/>
      <point x="1202.0" y="1144.0" type="line"/>
      <point x="1138.0" y="748.0" type="line"/>
      <point x="1606.0" y="748.0" type="line"/>
      <point x="1510.0" y="758.0" type="line"/>
      <point x="1481.0" y="574.0"/>
      <point x="1325.0" y="456.0"/>
      <point x="1070.0" y="456.0" type="curve" smooth="yes"/>
      <point x="783.0" y="456.0"/>
      <point x="680.0" y="668.0"/>
      <point x="740.0" y="1028.0" type="curve" smooth="yes"/>
      <point x="798.0" y="1383.0"/>
      <point x="1013.0" y="1592.0"/>
      <point x="1294.0" y="1592.0" type="curve" smooth="yes"/>
      <point x="1467.0" y="1592.0"/>
      <point x="1552.0" y="1512.0"/>
    </contour>
  </outline>
</glyph>
<glyph name="d" format="2">
  <advance width="1816.0"/>
  <unicode hex="0064"/>
  <outline>
    <contour>
      <point x="566.0" y="-20.0" type="curve" smooth="yes"/>
      <point x="781.0" y="-20.0"/>
      <point x="948.0" y="96.0"/>
      <point x="1038.0" y="252.0" type="curve"/>
      <point x="1050.0" y="252.0" type="line"/>
      <point x="1008.0" y="0.0" type="line"/>
      <point x="1556.0" y="0.0" type="line"/>
      <point x="1896.0" y="2048.0" type="line"/>
      <point x="1344.0" y="2048.0" type="line"/>
      <point x="1214.0" y="1268.0" type="line"/>
      <point x="1206.0" y="1268.0" type="line"/>
      <point x="1172.0" y="1424.0"/>
      <point x="1050.0" y="1556.0"/>
      <point x="822.0" y="1556.0" type="curve" smooth="yes"/>
      <point x="518.0" y="1556.0"/>
      <point x="184.0" y="1324.0"/>
      <point x="92.0" y="768.0" type="curve"/>
      <point x="4.0" y="236.0"/>
      <point x="237.0" y="-20.0"/>
    </contour>
    <contour>
      <point x="840.0" y="404.0" type="curve" smooth="yes"/>
      <point x="687.0" y="404.0"/>
      <point x="622.0" y="540.0"/>
      <point x="660.0" y="768.0" type="curve" smooth="yes"/>
      <point x="697.0" y="996.0"/>
      <point x="808.0" y="1132.0"/>
      <point x="960.0" y="1132.0" type="curve" smooth="yes"/>
      <point x="1112.0" y="1132.0"/>
      <point x="1181.0" y="996.0"/>
      <point x="1144.0" y="768.0" type="curve"/>
      <point x="1107.0" y="544.0"/>
      <point x="991.0" y="404.0"/>
    </contour>
  </outline>
</glyph>
<glyph name="f" format="2">
  <advance width="1134.0"/>
  <unicode hex="0066"/>
  <guideline x="426.0" y="1228.0" angle="0.0"/>
  <guideline x="-536.0" y="256.0" angle="0.0"/>
  <outline>
    <contour>
      <point x="1190.0" y="1536.0" type="line"/>
      <point x="162.0" y="1536.0" type="line"/>
      <point x="94.0" y="1136.0" type="line"/>
      <point x="1122.0" y="1136.0" type="line"/>
    </contour>
    <component base="_part.f_base" xOffset="-24.0"/>
  </outline>
</glyph>
<glyph name="r" format="2">
  <advance width="1220.0"/>
  <unicode hex="0072"/>
  <outline>
    <contour>
      <point x="12.0" y="0.0" type="line"/>
      <point x="564.0" y="0.0" type="line"/>
      <point x="696.0" y="800.0" type="line" smooth="yes"/>
      <point x="728.0" y="976.0"/>
      <point x="868.0" y="1092.0"/>
      <point x="1028.0" y="1092.0" type="curve" smooth="yes"/>
      <point x="1088.0" y="1092.0"/>
      <point x="1176.0" y="1084.0"/>
      <point x="1228.0" y="1064.0" type="curve"/>
      <point x="1308.0" y="1536.0" type="line"/>
      <point x="1264.0" y="1548.0"/>
      <point x="1220.0" y="1556.0"/>
      <point x="1172.0" y="1556.0" type="curve"/>
      <point x="1008.0" y="1556.0"/>
      <point x="864.0" y="1460.0"/>
      <point x="772.0" y="1244.0" type="curve"/>
      <point x="756.0" y="1244.0" type="line"/>
      <point x="804.0" y="1536.0" type="line"/>
      <point x="268.0" y="1536.0" type="line"/>
    </contour>
  </outline>
</glyph>
<glyph name="y" format="2">
  <advance width="1704.0"/>
  <unicode hex="0079"/>
  <guideline x="-58.0" y="316.0" angle="90.0"/>
  <outline>
    <contour>
      <point x="254.0" y="-574.0" type="curve" smooth="yes"/>
      <point x="640.0" y="-574.0"/>
      <point x="852.0" y="-380.0"/>
      <point x="980.0" y="-128.0" type="curve" smooth="yes"/>
      <point x="1816.0" y="1536.0" type="line"/>
      <point x="1216.0" y="1536.0" type="line"/>
      <point x="786.0" y="472.0" type="line"/>
      <point x="770.0" y="472.0" type="line"/>
      <point x="700.0" y="1536.0" type="line"/>
      <point x="144.0" y="1536.0" type="line"/>
      <point x="418.0" y="-68.0" type="line"/>
      <point x="400.0" y="-96.0" type="line" smooth="yes"/>
      <point x="342.0" y="-176.0"/>
      <point x="244.0" y="-176.0"/>
      <point x="116.0" y="-128.0" type="curve"/>
      <point x="-70.0" y="-520.0" type="line"/>
      <point x="12.0" y="-554.0"/>
      <point x="126.0" y="-574.0"/>
    </contour>
  </outline>
</glyph>
<glyph name="copyright" format="2">
  <advance width="2576.0"/>
  <unicode hex="00A9"/>
  <note>
Stroke R: 116
Stroke B: 160
</note>
  <guideline x="332.0" y="1240.0" angle="0.0"/>
  <guideline x="18.0" y="764.0" angle="0.0"/>
  <outline>
    <contour>
      <point x="792.0" y="1024.0" type="curve" smooth="yes"/>
      <point x="742.0" y="724.0"/>
      <point x="946.0" y="480.0"/>
      <point x="1246.0" y="480.0" type="curve" smooth="yes"/>
      <point x="1512.0" y="480.0"/>
      <point x="1768.0" y="674.0"/>
      <point x="1836.0" y="928.0" type="curve"/>
      <point x="1502.0" y="928.0" type="line"/>
      <point x="1473.0" y="850.0"/>
      <point x="1383.0" y="800.0"/>
      <point x="1286.0" y="800.0" type="curve" smooth="yes"/>
      <point x="1154.0" y="800.0"/>
      <point x="1090.0" y="898.0"/>
      <point x="1112.0" y="1026.0" type="curve" smooth="yes"/>
      <point x="1135.0" y="1162.0"/>
      <point x="1245.0" y="1248.0"/>
      <point x="1374.0" y="1248.0" type="curve" smooth="yes"/>
      <point x="1472.0" y="1248.0"/>
      <point x="1530.0" y="1199.0"/>
      <point x="1534.0" y="1120.0" type="curve"/>
      <point x="1868.0" y="1120.0" type="line"/>
      <point x="1884.0" y="1374.0"/>
      <point x="1692.0" y="1568.0"/>
      <point x="1426.0" y="1568.0" type="curve" smooth="yes"/>
      <point x="1126.0" y="1568.0"/>
      <point x="842.0" y="1324.0"/>
    </contour>
    <component base="circlewhite"/>
  </outline>
</glyph>
<glyph name="registered" format="2">
  <advance width="1856.0"/>
  <unicode hex="00AE"/>
  <note>
Stroke L: 32
Stroke R: 96
Stroke B: 112
</note>
  <outline>
    <contour>
      <point x="660.0" y="916.0" type="line"/>
      <point x="872.0" y="916.0" type="line"/>
      <point x="968.0" y="1498.0" type="line"/>
      <point x="1068.0" y="1498.0" type="line" smooth="yes"/>
      <point x="1132.0" y="1498.0"/>
      <point x="1162.0" y="1466.0"/>
      <point x="1152.0" y="1404.0" type="curve" smooth="yes"/>
      <point x="1143.0" y="1346.0"/>
      <point x="1102.0" y="1314.0"/>
      <point x="1038.0" y="1314.0" type="curve" smooth="yes"/>
      <point x="840.0" y="1314.0" type="line"/>
      <point x="816.0" y="1162.0" type="line"/>
      <point x="1048.0" y="1162.0" type="line" smooth="yes"/>
      <point x="1224.0" y="1162.0"/>
      <point x="1344.0" y="1250.0"/>
      <point x="1370.0" y="1404.0" type="curve" smooth="yes"/>
      <point x="1396.0" y="1556.0"/>
      <point x="1308.0" y="1654.0"/>
      <point x="1134.0" y="1654.0" type="curve" smooth="yes"/>
      <point x="782.0" y="1654.0" type="line"/>
    </contour>
    <contour>
      <point x="1204.0" y="1252.0" type="line"/>
      <point x="988.0" y="1252.0" type="line"/>
      <point x="1074.0" y="916.0" type="line"/>
      <point x="1306.0" y="916.0" type="line"/>
    </contour>
    <contour>
      <point x="1012.0" y="476.0" type="curve" smooth="yes"/>
      <point x="1456.0" y="476.0"/>
      <point x="1812.0" y="834.0"/>
      <point x="1812.0" y="1276.0" type="curve" smooth="yes"/>
      <point x="1812.0" y="1718.0"/>
      <point x="1454.0" y="2076.0"/>
      <point x="1012.0" y="2076.0" type="curve" smooth="yes"/>
      <point x="570.0" y="2076.0"/>
      <point x="212.0" y="1718.0"/>
      <point x="212.0" y="1276.0" type="curve" smooth="yes"/>
      <point x="212.0" y="834.0"/>
      <point x="570.0" y="476.0"/>
    </contour>
    <contour>
      <point x="1012.0" y="700.0" type="curve" smooth="yes"/>
      <point x="694.0" y="700.0"/>
      <point x="436.0" y="958.0"/>
      <point x="436.0" y="1276.0" type="curve" smooth="yes"/>
      <point x="436.0" y="1594.0"/>
      <point x="694.0" y="1852.0"/>
      <point x="1012.0" y="1852.0" type="curve" smooth="yes"/>
      <point x="1330.0" y="1852.0"/>
      <point x="1588.0" y="1594.0"/>
      <point x="1588.0" y="1276.0" type="curve" smooth="yes"/>
      <point x="1588.0" y="958.0"/>
      <point x="1332.0" y="700.0"/>
    </contour>
  </outline>
</glyph>
<glyph name="degree" format="2">
  <advance width="1304.0"/>
  <unicode hex="00B0"/>
  <outline>
    <contour>
      <point x="780.0" y="1036.0" type="curve" smooth="yes"/>
      <point x="1063.0" y="1036.0"/>
      <point x="1292.0" y="1265.0"/>
      <point x="1292.0" y="1548.0" type="curve" smooth="yes"/>
      <point x="1292.0" y="1831.0"/>
      <point x="1063.0" y="2060.0"/>
      <point x="780.0" y="2060.0" type="curve" smooth="yes"/>
      <point x="497.0" y="2060.0"/>
      <point x="268.0" y="1831.0"/>
      <point x="268.0" y="1548.0" type="curve" smooth="yes"/>
      <point x="268.0" y="1265.0"/>
      <point x="497.0" y="1036.0"/>
    </contour>
    <contour>
      <point x="780.0" y="1376.0" type="curve" smooth="yes"/>
      <point x="685.0" y="1376.0"/>
      <point x="608.0" y="1453.0"/>
      <point x="608.0" y="1548.0" type="curve" smooth="yes"/>
      <point x="608.0" y="1643.0"/>
      <point x="685.0" y="1720.0"/>
      <point x="780.0" y="1720.0" type="curve" smooth="yes"/>
      <point x="875.0" y="1720.0"/>
      <point x="952.0" y="1643.0"/>
      <point x="952.0" y="1548.0" type="curve" smooth="yes"/>
      <point x="952.0" y="1453.0"/>
      <point x="875.0" y="1376.0"/>
    </contour>
  </outline>
</glyph>
<glyph name="OE" format="2">
  <advance width="2988.0"/>
  <unicode hex="0152"/>
  <note>
!post:RemoveOverlap
</note>
  <outline>
    <contour>
      <point x="948.0" y="0.0" type="curve"/>
      <point x="1452.0" y="0.0" type="line"/>
      <point x="1528.0" y="448.0" type="line"/>
      <point x="1024.0" y="448.0" type="line"/>
      <point x="801.0" y="448.0"/>
      <point x="657.0" y="568.0"/>
      <point x="732.0" y="1020.0" type="curve"/>
      <point x="805.0" y="1468.0"/>
      <point x="989.0" y="1600.0"/>
      <point x="1212.0" y="1600.0" type="curve"/>
      <point x="1716.0" y="1600.0" type="line"/>
      <point x="1792.0" y="2048.0" type="line"/>
      <point x="1288.0" y="2048.0" type="line"/>
      <point x="757.0" y="2048.0"/>
      <point x="281.0" y="1720.0"/>
      <point x="168.0" y="1020.0" type="curve"/>
      <point x="53.0" y="324.0"/>
      <point x="417.0" y="0.0"/>
    </contour>
    <component base="E" xOffset="1240.0"/>
  </outline>
</glyph>
<glyph name="Nhook" format="2">
  <advance width="2108.0"/>
  <unicode hex="019D"/>
  <outline>
    <contour>
      <point x="76.0" y="0.0" type="line"/>
      <point x="68.0" y="-48.0" type="line" smooth="yes"/>
      <point x="54.0" y="-141.0"/>
      <point x="-57.0" y="-160.0"/>
      <point x="-156.0" y="-160.0" type="curve"/>
      <point x="-181.0" y="-160.0"/>
      <point x="-225.0" y="-164.0"/>
      <point x="-248.0" y="-160.0" type="curve"/>
      <point x="-316.0" y="-568.0" type="line"/>
      <point x="-265.0" y="-576.0"/>
      <point x="-137.0" y="-576.0"/>
      <point x="-80.0" y="-576.0" type="curve"/>
      <point x="207.0" y="-576.0"/>
      <point x="543.0" y="-533.0"/>
      <point x="624.0" y="-48.0" type="curve" smooth="yes"/>
      <point x="632.0" y="0.0" type="line"/>
    </contour>
    <component base="N" xOffset="72.0"/>
  </outline>
</glyph>
<glyph name="yhook" format="2">
  <advance width="1784.0"/>
  <unicode hex="01B4"/>
  <outline>
    <contour>
      <point x="1614.0" y="1260.0" type="line"/>
      <point x="1644.0" y="1320.0" type="line" smooth="yes"/>
      <point x="1672.0" y="1371.0"/>
      <point x="1704.0" y="1406.0"/>
      <point x="1794.0" y="1448.0" type="curve" smooth="yes"/>
      <point x="1817.0" y="1459.0"/>
      <point x="1842.0" y="1468.0"/>
      <point x="1888.0" y="1468.0" type="curve"/>
      <point x="1974.0" y="1908.0" type="line"/>
      <point x="1732.0" y="1908.0"/>
      <point x="1641.0" y="1901.0"/>
      <point x="1524.0" y="1850.0" type="curve" smooth="yes"/>
      <point x="1376.0" y="1786.0"/>
      <point x="1253.0" y="1681.0"/>
      <point x="1184.0" y="1540.0" type="curve" smooth="yes"/>
      <point x="1110.0" y="1384.0" type="line"/>
    </contour>
    <contour>
      <point x="488.0" y="20.0" type="line" smooth="yes"/>
      <point x="451.0" y="-72.0"/>
      <point x="379.0" y="-168.0"/>
      <point x="182.0" y="-168.0" type="curve"/>
      <point x="183.0" y="-168.0"/>
      <point x="171.0" y="-168.0"/>
      <point x="138.0" y="-164.0" type="curve"/>
      <point x="72.0" y="-568.0" type="line"/>
      <point x="159.0" y="-600.0"/>
      <point x="163.0" y="-600.0"/>
      <point x="266.0" y="-600.0" type="curve" smooth="yes"/>
      <point x="643.0" y="-600.0"/>
      <point x="855.0" y="-336.0"/>
      <point x="910.0" y="-216.0" type="curve" smooth="yes"/>
      <point x="1614.0" y="1260.0" type="line"/>
      <point x="1110.0" y="1384.0" type="line"/>
      <point x="868.0" y="864.0" type="line"/>
      <point x="748.0" y="1536.0" type="line"/>
      <point x="180.0" y="1536.0" type="line"/>
      <point x="508.0" y="68.0" type="line"/>
    </contour>
  </outline>
</glyph>
<glyph name="Nsmallcap" format="2">
  <advance width="1824.0"/>
  <unicode hex="0274"/>
  <outline>
    <contour>
      <point x="1816.0" y="1536.0" type="line"/>
      <point x="1272.0" y="1536.0" type="line"/>
      <point x="1154.0" y="832.0" type="line"/>
      <point x="1138.0" y="832.0" type="line"/>
      <point x="706.0" y="1536.0" type="line"/>
      <point x="272.0" y="1536.0" type="line"/>
      <point x="16.0" y="0.0" type="line"/>
      <point x="548.0" y="0.0" type="line"/>
      <point x="654.0" y="634.0" type="line"/>
      <point x="666.0" y="634.0" type="line"/>
      <point x="1052.0" y="0.0" type="line"/>
      <point x="1560.0" y="0.0" type="line"/>
    </contour>
  </outline>
</glyph>
<glyph name="rturnrthook" format="2">
  <advance width="1420.0"/>
  <unicode hex="027B"/>
  <outline>
    <contour>
      <point x="948.0" y="-600.0" type="curve" smooth="yes"/>
      <point x="1061.0" y="-600.0"/>
      <point x="1145.0" y="-592.0"/>
      <point x="1228.0" y="-580.0" type="curve"/>
      <point x="1284.0" y="-236.0" type="line"/>
      <point x="1237.0" y="-240.0"/>
      <point x="1209.0" y="-244.0"/>
      <point x="1156.0" y="-244.0" type="curve" smooth="yes"/>
      <point x="984.0" y="-244.0"/>
      <point x="919.0" y="-183.0"/>
      <point x="944.0" y="-44.0" type="curve" smooth="yes"/>
      <point x="952.0" y="0.0" type="line"/>
      <point x="416.0" y="0.0" type="line"/>
      <point x="404.0" y="-76.0" type="line" smooth="yes"/>
      <point x="332.0" y="-533.0"/>
      <point x="609.0" y="-600.0"/>
    </contour>
    <component base="rturn"/>
  </outline>
</glyph>
<glyph name="rrthook.1" format="2">
  <advance width="1260.0"/>
  <unicode hex="027D"/>
  <outline>
    <contour>
      <point x="528.0" y="-576.0" type="curve" smooth="yes"/>
      <point x="661.0" y="-576.0"/>
      <point x="741.0" y="-564.0"/>
      <point x="804.0" y="-560.0" type="curve"/>
      <point x="872.0" y="-152.0" type="line"/>
      <point x="829.0" y="-162.0"/>
      <point x="789.0" y="-164.0"/>
      <point x="748.0" y="-164.0" type="curve" smooth="yes"/>
      <point x="653.0" y="-164.0"/>
      <point x="539.0" y="-153.0"/>
      <point x="560.0" y="-24.0" type="curve" smooth="yes"/>
      <point x="564.0" y="0.0" type="line"/>
      <point x="12.0" y="0.0" type="line"/>
      <point x="4.0" y="-48.0" type="line" smooth="yes"/>
      <point x="-71.0" y="-500.0"/>
      <point x="189.0" y="-576.0"/>
    </contour>
    <component base="r.1"/>
  </outline>
</glyph>
<glyph name="zrthook" format="2">
  <advance width="1884.0"/>
  <unicode hex="0290"/>
  <outline>
    <contour>
      <point x="1044.0" y="0.0" type="line"/>
      <point x="1032.0" y="-76.0" type="line" smooth="yes"/>
      <point x="979.0" y="-409.0"/>
      <point x="1127.0" y="-600.0"/>
      <point x="1456.0" y="-600.0" type="curve" smooth="yes"/>
      <point x="1527.0" y="-600.0"/>
      <point x="1583.0" y="-596.0"/>
      <point x="1660.0" y="-580.0" type="curve"/>
      <point x="1716.0" y="-244.0" type="line"/>
      <point x="1667.0" y="-248.0"/>
      <point x="1639.0" y="-252.0"/>
      <point x="1588.0" y="-252.0" type="curve" smooth="yes"/>
      <point x="1487.0" y="-252.0"/>
      <point x="1350.0" y="-218.0"/>
      <point x="1372.0" y="-76.0" type="curve" smooth="yes"/>
      <point x="1384.0" y="0.0" type="line"/>
    </contour>
    <component base="z"/>
  </outline>
</glyph>
<glyph name="commareversedmod" format="2">
  <advance width="888.0"/>
  <unicode hex="02BD"/>
  <outline>
    <contour>
      <point x="472.0" y="1364.0" type="curve"/>
      <point x="812.0" y="1364.0" type="line"/>
      <point x="798.0" y="1474.0"/>
      <point x="754.0" y="1760.0"/>
      <point x="800.0" y="2032.0" type="curve" smooth="yes"/>
      <point x="818.0" y="2144.0" type="line"/>
      <point x="402.0" y="2144.0" type="line"/>
      <point x="392.0" y="2032.0" type="line" smooth="yes"/>
      <point x="364.0" y="1742.0"/>
      <point x="442.0" y="1474.0"/>
    </contour>
  </outline>
</glyph>
<glyph name="ringhalfright" format="2">
  <advance width="456.0"/>
  <unicode hex="02BE"/>
  <outline>
    <contour>
      <point x="190.0" y="1524.0" type="line"/>
      <point x="346.0" y="1524.0"/>
      <point x="492.0" y="1632.0"/>
      <point x="518.0" y="1792.0" type="curve" smooth="yes"/>
      <point x="544.0" y="1956.0"/>
      <point x="436.0" y="2072.0"/>
      <point x="280.0" y="2072.0" type="curve"/>
      <point x="248.0" y="1878.0" type="line"/>
      <point x="300.0" y="1878.0"/>
      <point x="334.0" y="1842.0"/>
      <point x="326.0" y="1792.0" type="curve" smooth="yes"/>
      <point x="318.0" y="1746.0"/>
      <point x="274.0" y="1712.0"/>
      <point x="220.0" y="1712.0" type="curve"/>
    </contour>
  </outline>
</glyph>
<glyph name="ringhalfleft" format="2">
  <advance width="456.0"/>
  <unicode hex="02BF"/>
  <outline>
    <contour>
      <point x="518.0" y="1524.0" type="curve"/>
      <point x="548.0" y="1712.0" type="line"/>
      <point x="496.0" y="1712.0"/>
      <point x="462.0" y="1746.0"/>
      <point x="470.0" y="1792.0" type="curve" smooth="yes"/>
      <point x="478.0" y="1842.0"/>
      <point x="522.0" y="1878.0"/>
      <point x="576.0" y="1878.0" type="curve"/>
      <point x="608.0" y="2072.0" type="line"/>
      <point x="452.0" y="2072.0"/>
      <point x="304.0" y="1956.0"/>
      <point x="278.0" y="1792.0" type="curve" smooth="yes"/>
      <point x="252.0" y="1632.0"/>
      <point x="362.0" y="1524.0"/>
    </contour>
  </outline>
</glyph>
<glyph name="arrowheadupmod" format="2">
  <advance width="1420.0"/>
  <unicode hex="02C4"/>
  <outline>
    <contour>
      <point x="926.0" y="780.0" type="line"/>
      <point x="1262.0" y="780.0" type="line"/>
      <point x="1066.0" y="1872.0" type="line"/>
      <point x="810.0" y="1872.0" type="line"/>
      <point x="818.0" y="1380.0" type="line"/>
    </contour>
    <contour>
      <point x="162.0" y="780.0" type="line"/>
      <point x="506.0" y="780.0" type="line"/>
      <point x="806.0" y="1380.0" type="line"/>
      <point x="974.0" y="1872.0" type="line"/>
      <point x="722.0" y="1872.0" type="line"/>
    </contour>
  </outline>
</glyph>
<glyph name="caron" format="2">
  <advance width="1776.0"/>
  <unicode hex="02C7"/>
  <guideline x="1248.0" y="1720.0" angle="0.0"/>
  <outline>
    <contour>
      <point x="926.0" y="2188.0" type="line"/>
      <point x="470.0" y="2188.0" type="line"/>
      <point x="468.0" y="2176.0" type="line"/>
      <point x="854.0" y="1720.0" type="line"/>
      <point x="1238.0" y="1720.0" type="line"/>
      <point x="1772.0" y="2176.0" type="line"/>
      <point x="1774.0" y="2188.0" type="line"/>
      <point x="1318.0" y="2188.0" type="line"/>
      <point x="1086.0" y="1968.0" type="line"/>
    </contour>
  </outline>
</glyph>
<glyph name="breve" format="2">
  <advance width="1420.0"/>
  <unicode hex="02D8"/>
  <outline>
    <contour>
      <point x="1128.0" y="2088.0" type="line"/>
      <point x="1112.0" y="2000.0"/>
      <point x="1044.0" y="1920.0"/>
      <point x="900.0" y="1920.0" type="curve" smooth="yes"/>
      <point x="752.0" y="1920.0"/>
      <point x="710.0" y="2004.0"/>
      <point x="724.0" y="2088.0" type="curve"/>
      <point x="380.0" y="2088.0" type="line"/>
      <point x="336.0" y="1828.0"/>
      <point x="520.0" y="1660.0"/>
      <point x="858.0" y="1660.0" type="curve" smooth="yes"/>
      <point x="1192.0" y="1660.0"/>
      <point x="1432.0" y="1828.0"/>
      <point x="1476.0" y="2088.0" type="curve"/>
    </contour>
  </outline>
</glyph>
<glyph name="dotaccent" format="2">
  <advance width="920.0"/>
  <unicode hex="02D9"/>
  <guideline x="1950.0" y="1428.0" angle="260.6"/>
  <guideline x="656.0" y="1948.0" angle="0.0"/>
  <outline>
    <contour>
      <point x="614.0" y="1696.0" type="curve" smooth="yes"/>
      <point x="764.0" y="1696.0"/>
      <point x="904.0" y="1810.0"/>
      <point x="926.0" y="1948.0" type="curve" smooth="yes"/>
      <point x="948.0" y="2088.0"/>
      <point x="846.0" y="2200.0"/>
      <point x="696.0" y="2200.0" type="curve" smooth="yes"/>
      <point x="546.0" y="2200.0"/>
      <point x="406.0" y="2088.0"/>
      <point x="382.0" y="1948.0" type="curve" smooth="yes"/>
      <point x="358.0" y="1810.0"/>
      <point x="464.0" y="1696.0"/>
    </contour>
  </outline>
</glyph>
<glyph name="dblgravecmb" format="2">
  <unicode hex="030F"/>
  <outline>
    <contour>
      <point x="-750.0" y="1728.0" type="line"/>
      <point x="-866.0" y="2176.0" type="line"/>
      <point x="-1338.0" y="2176.0" type="line"/>
      <point x="-1114.0" y="1728.0" type="line"/>
    </contour>
    <contour>
      <point x="-218.0" y="1728.0" type="line"/>
      <point x="-244.0" y="2176.0" type="line"/>
      <point x="-690.0" y="2176.0" type="line"/>
      <point x="-572.0" y="1728.0" type="line"/>
    </contour>
  </outline>
</glyph>
<glyph name="bridgesubnosp" format="2">
  <unicode hex="032A"/>
  <outline>
    <contour>
      <point x="-1732.0" y="-660.0" type="line"/>
      <point x="-1420.0" y="-660.0" type="line"/>
      <point x="-1328.0" y="-112.0" type="line"/>
      <point x="-1640.0" y="-112.0" type="line"/>
    </contour>
    <contour>
      <point x="-1460.0" y="-412.0" type="line"/>
      <point x="-884.0" y="-412.0" type="line"/>
      <point x="-832.0" y="-112.0" type="line"/>
      <point x="-1408.0" y="-112.0" type="line"/>
    </contour>
    <contour>
      <point x="-984.0" y="-660.0" type="line"/>
      <point x="-676.0" y="-660.0" type="line"/>
      <point x="-584.0" y="-112.0" type="line"/>
      <point x="-892.0" y="-112.0" type="line"/>
    </contour>
  </outline>
</glyph>
<glyph name="seagullsubnosp" format="2">
  <advance width="36.0"/>
  <unicode hex="033C"/>
  <note>
position under "x".
offset curve settings:
L: 32,32,0%
R: 70,80,0%
B: 110,90,0%
</note>
  <outline>
    <contour>
      <point x="-936.0" y="-480.0" type="line"/>
      <point x="-918.0" y="-370.0"/>
      <point x="-844.0" y="-310.0"/>
      <point x="-732.0" y="-310.0" type="curve" smooth="yes"/>
      <point x="-622.0" y="-310.0"/>
      <point x="-566.0" y="-370.0"/>
      <point x="-584.0" y="-480.0" type="curve"/>
      <point x="-364.0" y="-480.0" type="line"/>
      <point x="-328.0" y="-264.0"/>
      <point x="-478.0" y="-130.0"/>
      <point x="-702.0" y="-130.0" type="curve" smooth="yes"/>
      <point x="-928.0" y="-130.0"/>
      <point x="-1120.0" y="-264.0"/>
      <point x="-1156.0" y="-480.0" type="curve"/>
    </contour>
    <contour>
      <point x="-1508.0" y="-480.0" type="line"/>
      <point x="-1490.0" y="-370.0"/>
      <point x="-1416.0" y="-310.0"/>
      <point x="-1304.0" y="-310.0" type="curve" smooth="yes"/>
      <point x="-1194.0" y="-310.0"/>
      <point x="-1138.0" y="-370.0"/>
      <point x="-1156.0" y="-480.0" type="curve"/>
      <point x="-936.0" y="-480.0" type="line"/>
      <point x="-900.0" y="-264.0"/>
      <point x="-1050.0" y="-130.0"/>
      <point x="-1274.0" y="-130.0" type="curve" smooth="yes"/>
      <point x="-1500.0" y="-130.0"/>
      <point x="-1692.0" y="-264.0"/>
      <point x="-1728.0" y="-480.0" type="curve"/>
    </contour>
  </outline>
</glyph>
<glyph name="uni0346" format="2">
  <unicode hex="0346"/>
  <outline>
    <contour>
      <point x="-1352.0" y="1620.0" type="line"/>
      <point x="-1040.0" y="1620.0" type="line"/>
      <point x="-944.0" y="2188.0" type="line"/>
      <point x="-1256.0" y="2188.0" type="line"/>
    </contour>
    <contour>
      <point x="-1076.0" y="1888.0" type="line"/>
      <point x="-500.0" y="1888.0" type="line"/>
      <point x="-448.0" y="2188.0" type="line"/>
      <point x="-1024.0" y="2188.0" type="line"/>
    </contour>
    <contour>
      <point x="-604.0" y="1620.0" type="line"/>
      <point x="-296.0" y="1620.0" type="line"/>
      <point x="-200.0" y="2188.0" type="line"/>
      <point x="-508.0" y="2188.0" type="line"/>
    </contour>
  </outline>
</glyph>
<glyph name="beta" format="2">
  <advance width="1748.0"/>
  <unicode hex="03B2"/>
  <outline>
    <contour>
      <point x="866.0" y="1184.0" type="line"/>
      <point x="810.0" y="844.0" type="line"/>
      <point x="898.0" y="844.0" type="line" smooth="yes"/>
      <point x="1035.0" y="844.0"/>
      <point x="1167.0" y="800.0"/>
      <point x="1142.0" y="644.0" type="curve" smooth="yes"/>
      <point x="1122.0" y="520.0"/>
      <point x="1011.0" y="432.0"/>
      <point x="870.0" y="432.0" type="curve" smooth="yes"/>
      <point x="707.0" y="432.0"/>
      <point x="635.0" y="552.0"/>
      <point x="658.0" y="700.0" type="curve"/>
      <point x="554.0" y="68.0" type="line"/>
      <point x="566.0" y="72.0" type="line"/>
      <point x="675.0" y="12.0"/>
      <point x="795.0" y="-16.0"/>
      <point x="926.0" y="-16.0" type="curve" smooth="yes"/>
      <point x="1271.0" y="-16.0"/>
      <point x="1595.0" y="220.0"/>
      <point x="1654.0" y="584.0" type="curve" smooth="yes"/>
      <point x="1711.0" y="937.0"/>
      <point x="1483.0" y="1184.0"/>
      <point x="1054.0" y="1184.0" type="curve" smooth="yes"/>
    </contour>
    <contour>
      <point x="1098.0" y="2076.0" type="curve" smooth="yes"/>
      <point x="695.0" y="2076.0"/>
      <point x="319.0" y="1828.0"/>
      <point x="246.0" y="1396.0" type="curve"/>
      <point x="-82.0" y="-576.0" type="line"/>
      <point x="446.0" y="-576.0" type="line"/>
      <point x="766.0" y="1352.0" type="line" smooth="yes"/>
      <point x="795.0" y="1524.0"/>
      <point x="895.0" y="1604.0"/>
      <point x="1022.0" y="1604.0" type="curve" smooth="yes"/>
      <point x="1147.0" y="1604.0"/>
      <point x="1191.0" y="1524.0"/>
      <point x="1170.0" y="1408.0" type="curve" smooth="yes"/>
      <point x="1157.0" y="1337.0"/>
      <point x="1123.0" y="1212.0"/>
      <point x="946.0" y="1212.0" type="curve" smooth="yes"/>
      <point x="870.0" y="1212.0" type="line"/>
      <point x="818.0" y="900.0" type="line"/>
      <point x="994.0" y="900.0" type="line" smooth="yes"/>
      <point x="1371.0" y="900.0"/>
      <point x="1671.0" y="1212.0"/>
      <point x="1722.0" y="1520.0" type="curve" smooth="yes"/>
      <point x="1786.0" y="1904.0"/>
      <point x="1439.0" y="2076.0"/>
    </contour>
  </outline>
</glyph>
<glyph name="chi" format="2">
  <advance width="1766.0"/>
  <unicode hex="03C7"/>
  <note>
stroke R: 110, 50%
stroke B: ({Filter="OffsetCurve;250;200;1;0.5;";})
</note>
  <outline>
    <contour>
      <point x="-184.0" y="-562.0" type="line"/>
      <point x="362.0" y="-562.0" type="line"/>
      <point x="754.0" y="-16.0" type="line"/>
      <point x="838.0" y="-232.0" type="line" smooth="yes"/>
      <point x="938.0" y="-490.0"/>
      <point x="1059.0" y="-562.0"/>
      <point x="1390.0" y="-562.0" type="curve" smooth="yes"/>
      <point x="1504.0" y="-562.0" type="line"/>
      <point x="1570.0" y="-162.0" type="line"/>
      <point x="1456.0" y="-162.0" type="line" smooth="yes"/>
      <point x="1356.0" y="-162.0"/>
      <point x="1351.0" y="-154.0"/>
      <point x="1308.0" y="-40.0" type="curve" smooth="yes"/>
      <point x="984.0" y="808.0" type="line"/>
      <point x="798.0" y="808.0" type="line"/>
    </contour>
    <contour>
      <point x="696.0" y="148.0" type="line"/>
      <point x="876.0" y="148.0" type="line"/>
      <point x="1868.0" y="1536.0" type="line"/>
      <point x="1322.0" y="1536.0" type="line"/>
      <point x="920.0" y="974.0" type="line"/>
      <point x="830.0" y="1208.0" type="line" smooth="yes"/>
      <point x="733.0" y="1463.0"/>
      <point x="601.0" y="1536.0"/>
      <point x="276.0" y="1536.0" type="curve" smooth="yes"/>
      <point x="162.0" y="1536.0" type="line"/>
      <point x="96.0" y="1136.0" type="line"/>
      <point x="210.0" y="1136.0" type="line" smooth="yes"/>
      <point x="309.0" y="1136.0"/>
      <point x="316.0" y="1128.0"/>
      <point x="360.0" y="1014.0" type="curve" smooth="yes"/>
    </contour>
  </outline>
</glyph>
<glyph name="zecyrillic" format="2">
  <advance width="1544.0"/>
  <unicode hex="0437"/>
  <note>
stroke L: ({Filter="OffsetCurve;32;32;1;1;";})
</note>
  <guideline x="1416.0" y="1824.0" angle="0.0"/>
  <guideline x="-188.0" y="612.0" angle="0.0"/>
  <outline>
    <contour>
      <point x="22.0" y="464.0" type="line"/>
      <point x="-22.0" y="131.0"/>
      <point x="242.0" y="-28.0"/>
      <point x="638.0" y="-28.0" type="curve" smooth="yes"/>
      <point x="1045.0" y="-28.0"/>
      <point x="1362.0" y="135.0"/>
      <point x="1410.0" y="424.0" type="curve" smooth="yes"/>
      <point x="1448.0" y="653.0"/>
      <point x="1289.0" y="773.0"/>
      <point x="1094.0" y="784.0" type="curve"/>
      <point x="1098.0" y="800.0" type="line"/>
      <point x="1325.0" y="848.0"/>
      <point x="1459.0" y="964.0"/>
      <point x="1486.0" y="1120.0" type="curve" smooth="yes"/>
      <point x="1535.0" y="1403.0"/>
      <point x="1309.0" y="1556.0"/>
      <point x="898.0" y="1556.0" type="curve" smooth="yes"/>
      <point x="537.0" y="1556.0"/>
      <point x="217.0" y="1384.0"/>
      <point x="166.0" y="1088.0" type="curve"/>
      <point x="686.0" y="1088.0" type="line"/>
      <point x="699.0" y="1154.0"/>
      <point x="772.0" y="1200.0"/>
      <point x="862.0" y="1200.0" type="curve" smooth="yes"/>
      <point x="954.0" y="1200.0"/>
      <point x="1009.0" y="1144.0"/>
      <point x="998.0" y="1064.0" type="curve" smooth="yes"/>
      <point x="988.0" y="993.0"/>
      <point x="910.0" y="944.0"/>
      <point x="818.0" y="944.0" type="curve" smooth="yes"/>
      <point x="626.0" y="944.0" type="line"/>
      <point x="570.0" y="620.0" type="line"/>
      <point x="762.0" y="620.0" type="line" smooth="yes"/>
      <point x="858.0" y="620.0"/>
      <point x="917.0" y="562.0"/>
      <point x="902.0" y="480.0" type="curve" smooth="yes"/>
      <point x="886.0" y="393.0"/>
      <point x="804.0" y="332.0"/>
      <point x="698.0" y="332.0" type="curve" smooth="yes"/>
      <point x="594.0" y="332.0"/>
      <point x="528.0" y="387.0"/>
      <point x="542.0" y="464.0" type="curve"/>
    </contour>
  </outline>
</glyph>
<glyph name="uni1DFF" format="2">
  <unicode hex="1DFF"/>
  <outline>
    <contour>
      <point x="-712.0" y="-736.0" type="line"/>
      <point x="-460.0" y="-736.0" type="line"/>
      <point x="20.0" y="-128.0" type="line"/>
      <point x="-288.0" y="-128.0" type="line"/>
      <point x="-552.0" y="-464.0" type="line"/>
    </contour>
    <contour>
      <point x="-2026.0" y="-770.0" type="line"/>
      <point x="-1112.0" y="-534.0" type="line"/>
      <point x="-1086.0" y="-382.0" type="line"/>
      <point x="-1400.0" y="-418.0" type="line"/>
      <point x="-1986.0" y="-530.0" type="line"/>
    </contour>
    <contour>
      <point x="-1102.0" y="-478.0" type="line"/>
      <point x="-1078.0" y="-326.0" type="line"/>
      <point x="-1914.0" y="-90.0" type="line"/>
      <point x="-1954.0" y="-326.0" type="line"/>
      <point x="-1404.0" y="-442.0" type="line"/>
    </contour>
    <contour>
      <point x="-804.0" y="-736.0" type="line"/>
      <point x="-548.0" y="-736.0" type="line"/>
      <point x="-628.0" y="-464.0" type="line"/>
      <point x="-772.0" y="-128.0" type="line"/>
      <point x="-1080.0" y="-128.0" type="line"/>
    </contour>
  </outline>
</glyph>
<glyph name="uni1FBE" format="2">
  <advance width="892.0"/>
  <unicode hex="1FBE"/>
  <note>
similar or identical to iotasubnosp
</note>
  <outline>
    <contour>
      <point x="272.0" y="-680.0" type="curve" smooth="yes"/>
      <point x="330.0" y="-680.0"/>
      <point x="374.0" y="-672.0"/>
      <point x="424.0" y="-660.0" type="curve"/>
      <point x="454.0" y="-480.0" type="line"/>
      <point x="438.0" y="-480.0"/>
      <point x="422.0" y="-484.0"/>
      <point x="388.0" y="-484.0" type="curve" smooth="yes"/>
      <point x="322.0" y="-484.0"/>
      <point x="312.0" y="-460.0"/>
      <point x="320.0" y="-420.0" type="curve" smooth="yes"/>
      <point x="366.0" y="-140.0" type="line"/>
      <point x="82.0" y="-140.0" type="line"/>
      <point x="36.0" y="-420.0" type="line" smooth="yes"/>
      <point x="4.0" y="-604.0"/>
      <point x="122.0" y="-680.0"/>
    </contour>
  </outline>
</glyph>
<glyph name="uni1FFD" format="2">
  <advance width="892.0"/>
  <unicode hex="1FFD"/>
  <outline>
    <contour>
      <point x="454.0" y="1728.0" type="line"/>
      <point x="722.0" y="1728.0" type="line"/>
      <point x="1128.0" y="2168.0" type="line"/>
      <point x="1132.0" y="2196.0" type="line"/>
      <point x="692.0" y="2196.0" type="line"/>
      <point x="462.0" y="1776.0" type="line"/>
    </contour>
  </outline>
</glyph>
<glyph name="figuredash" format="2">
  <advance width="1880.0"/>
  <unicode hex="2012"/>
  <outline>
    <contour>
      <point x="1922.0" y="1024.0" type="line"/>
      <point x="42.0" y="1024.0" type="line"/>
      <point x="-26.0" y="608.0" type="line"/>
      <point x="1854.0" y="608.0" type="line"/>
    </contour>
  </outline>
</glyph>
<glyph name="endash" format="2">
  <advance width="1408.0"/>
  <unicode hex="2013"/>
  <outline>
    <contour>
      <point x="1450.0" y="1024.0" type="line"/>
      <point x="42.0" y="1024.0" type="line"/>
      <point x="-26.0" y="608.0" type="line"/>
      <point x="1382.0" y="608.0" type="line"/>
    </contour>
  </outline>
</glyph>
<glyph name="emdash" format="2">
  <advance width="2816.0"/>
  <unicode hex="2014"/>
  <outline>
    <contour>
      <point x="2858.0" y="1024.0" type="line"/>
      <point x="42.0" y="1024.0" type="line"/>
      <point x="-26.0" y="608.0" type="line"/>
      <point x="2790.0" y="608.0" type="line"/>
    </contour>
  </outline>
</glyph>
<glyph name="bullet" format="2">
  <advance width="1120.0"/>
  <unicode hex="2022"/>
  <guideline x="1308.0" y="2716.0" angle="0.0"/>
  <guideline x="1104.0" y="816.0" angle="0.0"/>
  <outline>
    <contour>
      <point x="492.0" y="376.0" type="curve" smooth="yes"/>
      <point x="736.0" y="376.0"/>
      <point x="968.0" y="572.0"/>
      <point x="1008.0" y="816.0" type="curve" smooth="yes"/>
      <point x="1048.0" y="1060.0"/>
      <point x="884.0" y="1256.0"/>
      <point x="640.0" y="1256.0" type="curve" smooth="yes"/>
      <point x="396.0" y="1256.0"/>
      <point x="168.0" y="1060.0"/>
      <point x="128.0" y="816.0" type="curve" smooth="yes"/>
      <point x="88.0" y="572.0"/>
      <point x="252.0" y="376.0"/>
    </contour>
  </outline>
</glyph>
<glyph name="trianglebullet" format="2">
  <advance width="1120.0"/>
  <unicode hex="2023"/>
  <outline>
    <contour>
      <point x="164.0" y="368.0" type="line"/>
      <point x="978.0" y="816.0" type="line"/>
      <point x="312.0" y="1264.0" type="line"/>
    </contour>
  </outline>
</glyph>
<glyph name="hyphenbullet" format="2">
  <advance width="1120.0"/>
  <unicode hex="2043"/>
  <outline>
    <contour>
      <point x="1018.0" y="1024.0" type="line"/>
      <point x="186.0" y="1024.0" type="line"/>
      <point x="118.0" y="608.0" type="line"/>
      <point x="950.0" y="608.0" type="line"/>
    </contour>
  </outline>
</glyph>
<glyph name="paragraphreversed" format="2">
  <advance width="1680.0"/>
  <unicode hex="204B"/>
  <outline>
    <contour>
      <point x="778.0" y="760.0" type="line"/>
      <point x="898.0" y="760.0" type="line" smooth="yes"/>
      <point x="1358.0" y="760.0"/>
      <point x="1652.0" y="1032.0"/>
      <point x="1714.0" y="1404.0" type="curve" smooth="yes"/>
      <point x="1774.0" y="1772.0"/>
      <point x="1572.0" y="2048.0"/>
      <point x="1112.0" y="2048.0" type="curve" smooth="yes"/>
      <point x="656.0" y="2048.0" type="line"/>
      <point x="590.0" y="1648.0" type="line"/>
      <point x="926.0" y="1648.0" type="line"/>
    </contour>
    <contour>
      <point x="4.0" y="0.0" type="line"/>
      <point x="404.0" y="0.0" type="line"/>
      <point x="744.0" y="2048.0" type="line"/>
      <point x="344.0" y="2048.0" type="line"/>
    </contour>
  </outline>
</glyph>
<glyph name="blackleftbullet" format="2">
  <advance width="1754.0"/>
  <unicode hex="204C"/>
  <note>
Based on paragraph. Slightly shorter.
</note>
  <outline>
    <contour>
      <point x="680.0" y="232.0" type="curve" smooth="yes"/>
      <point x="1122.0" y="232.0" type="line"/>
      <point x="1188.0" y="632.0" type="line"/>
      <point x="852.0" y="632.0" type="line"/>
      <point x="912.0" y="1000.0" type="line"/>
      <point x="1248.0" y="1000.0" type="line"/>
      <point x="1314.0" y="1400.0" type="line"/>
      <point x="872.0" y="1400.0" type="line" smooth="yes"/>
      <point x="532.0" y="1400.0"/>
      <point x="266.0" y="1166.0"/>
      <point x="208.0" y="816.0" type="curve" smooth="yes"/>
      <point x="150.0" y="466.0"/>
      <point x="338.0" y="232.0"/>
    </contour>
    <contour>
      <point x="1034.0" y="232.0" type="line"/>
      <point x="1434.0" y="232.0" type="line"/>
      <point x="1626.0" y="1400.0" type="line"/>
      <point x="1226.0" y="1400.0" type="line"/>
    </contour>
  </outline>
</glyph>
<glyph name="blackrightbullet" format="2">
  <advance width="1754.0"/>
  <unicode hex="204D"/>
  <outline>
    <contour>
      <point x="456.0" y="232.0" type="line"/>
      <point x="898.0" y="232.0" type="line" smooth="yes"/>
      <point x="1238.0" y="232.0"/>
      <point x="1504.0" y="466.0"/>
      <point x="1562.0" y="816.0" type="curve" smooth="yes"/>
      <point x="1620.0" y="1166.0"/>
      <point x="1432.0" y="1400.0"/>
      <point x="1090.0" y="1400.0" type="curve" smooth="yes"/>
      <point x="648.0" y="1400.0" type="line"/>
      <point x="582.0" y="1000.0" type="line"/>
      <point x="918.0" y="1000.0" type="line"/>
      <point x="858.0" y="632.0" type="line"/>
      <point x="522.0" y="632.0" type="line"/>
    </contour>
    <contour>
      <point x="144.0" y="232.0" type="line"/>
      <point x="544.0" y="232.0" type="line"/>
      <point x="736.0" y="1400.0" type="line"/>
      <point x="336.0" y="1400.0" type="line"/>
    </contour>
  </outline>
</glyph>
<glyph name="reversedsemicolon" format="2">
  <advance width="888.0"/>
  <unicode hex="204F"/>
  <outline>
    <contour>
      <point x="204.0" y="-500.0" type="curve"/>
      <point x="544.0" y="-500.0" type="line"/>
      <point x="530.0" y="-390.0"/>
      <point x="486.0" y="-104.0"/>
      <point x="530.0" y="168.0" type="curve" smooth="yes"/>
      <point x="550.0" y="280.0" type="line"/>
      <point x="134.0" y="280.0" type="line"/>
      <point x="122.0" y="168.0" type="line" smooth="yes"/>
      <point x="96.0" y="-122.0"/>
      <point x="174.0" y="-390.0"/>
    </contour>
    <contour>
      <point x="452.0" y="1000.0" type="curve" smooth="yes"/>
      <point x="606.0" y="1000.0"/>
      <point x="754.0" y="1124.0"/>
      <point x="778.0" y="1280.0" type="curve" smooth="yes"/>
      <point x="802.0" y="1432.0"/>
      <point x="698.0" y="1556.0"/>
      <point x="544.0" y="1556.0" type="curve" smooth="yes"/>
      <point x="396.0" y="1556.0"/>
      <point x="246.0" y="1432.0"/>
      <point x="218.0" y="1280.0" type="curve" smooth="yes"/>
      <point x="190.0" y="1124.0"/>
      <point x="304.0" y="1000.0"/>
    </contour>
  </outline>
</glyph>
<glyph name="published" format="2">
  <advance width="1856.0"/>
  <unicode hex="2117"/>
  <outline>
    <contour>
      <point x="682.0" y="916.0" type="line"/>
      <point x="894.0" y="916.0" type="line"/>
      <point x="990.0" y="1498.0" type="line"/>
      <point x="1090.0" y="1498.0" type="line" smooth="yes"/>
      <point x="1150.0" y="1498.0"/>
      <point x="1196.0" y="1456.0"/>
      <point x="1184.0" y="1386.0" type="curve" smooth="yes"/>
      <point x="1172.0" y="1314.0"/>
      <point x="1110.0" y="1274.0"/>
      <point x="1054.0" y="1274.0" type="curve" smooth="yes"/>
      <point x="856.0" y="1274.0" type="line"/>
      <point x="830.0" y="1122.0" type="line"/>
      <point x="1062.0" y="1122.0" type="line" smooth="yes"/>
      <point x="1232.0" y="1122.0"/>
      <point x="1362.0" y="1226.0"/>
      <point x="1388.0" y="1386.0" type="curve" smooth="yes"/>
      <point x="1414.0" y="1546.0"/>
      <point x="1322.0" y="1654.0"/>
      <point x="1156.0" y="1654.0" type="curve" smooth="yes"/>
      <point x="804.0" y="1654.0" type="line"/>
    </contour>
    <contour>
      <point x="1012.0" y="476.0" type="curve" smooth="yes"/>
      <point x="1456.0" y="476.0"/>
      <point x="1812.0" y="834.0"/>
      <point x="1812.0" y="1276.0" type="curve" smooth="yes"/>
      <point x="1812.0" y="1718.0"/>
      <point x="1454.0" y="2076.0"/>
      <point x="1012.0" y="2076.0" type="curve" smooth="yes"/>
      <point x="570.0" y="2076.0"/>
      <point x="212.0" y="1718.0"/>
      <point x="212.0" y="1276.0" type="curve" smooth="yes"/>
      <point x="212.0" y="834.0"/>
      <point x="570.0" y="476.0"/>
    </contour>
    <contour>
      <point x="1012.0" y="700.0" type="curve" smooth="yes"/>
      <point x="694.0" y="700.0"/>
      <point x="436.0" y="958.0"/>
      <point x="436.0" y="1276.0" type="curve" smooth="yes"/>
      <point x="436.0" y="1594.0"/>
      <point x="694.0" y="1852.0"/>
      <point x="1012.0" y="1852.0" type="curve" smooth="yes"/>
      <point x="1330.0" y="1852.0"/>
      <point x="1588.0" y="1594.0"/>
      <point x="1588.0" y="1276.0" type="curve" smooth="yes"/>
      <point x="1588.0" y="958.0"/>
      <point x="1332.0" y="700.0"/>
    </contour>
  </outline>
</glyph>
<glyph name="servicemark" format="2">
  <advance width="1856.0"/>
  <unicode hex="2120"/>
  <note>
stroke R: 58, 50%
stroke B: x=120/y=86, 50%
</note>
  <outline>
    <contour>
      <point x="534.0" y="1304.0" type="curve" smooth="yes"/>
      <point x="764.0" y="1304.0"/>
      <point x="892.0" y="1398.0"/>
      <point x="914.0" y="1530.0" type="curve" smooth="yes"/>
      <point x="933.0" y="1646.0"/>
      <point x="842.0" y="1741.0"/>
      <point x="678.0" y="1762.0" type="curve" smooth="yes"/>
      <point x="600.0" y="1772.0" type="line" smooth="yes"/>
      <point x="554.0" y="1778.0"/>
      <point x="542.0" y="1802.0"/>
      <point x="546.0" y="1836.0" type="curve" smooth="yes"/>
      <point x="551.0" y="1880.0"/>
      <point x="602.0" y="1886.0"/>
      <point x="642.0" y="1886.0" type="curve" smooth="yes"/>
      <point x="696.0" y="1886.0"/>
      <point x="718.0" y="1872.0"/>
      <point x="708.0" y="1810.0" type="curve"/>
      <point x="948.0" y="1810.0" type="line"/>
      <point x="976.0" y="1974.0"/>
      <point x="866.0" y="2058.0"/>
      <point x="668.0" y="2056.0" type="curve" smooth="yes"/>
      <point x="476.0" y="2054.0"/>
      <point x="324.0" y="1966.0"/>
      <point x="306.0" y="1832.0" type="curve" smooth="yes"/>
      <point x="291.0" y="1722.0"/>
      <point x="338.0" y="1619.0"/>
      <point x="524.0" y="1596.0" type="curve" smooth="yes"/>
      <point x="606.0" y="1586.0" type="line" smooth="yes"/>
      <point x="666.0" y="1579.0"/>
      <point x="678.0" y="1560.0"/>
      <point x="674.0" y="1530.0" type="curve" smooth="yes"/>
      <point x="669.0" y="1490.0"/>
      <point x="620.0" y="1476.0"/>
      <point x="570.0" y="1476.0" type="curve" smooth="yes"/>
      <point x="498.0" y="1476.0"/>
      <point x="474.0" y="1506.0"/>
      <point x="480.0" y="1544.0" type="curve"/>
      <point x="240.0" y="1544.0" type="line"/>
      <point x="216.0" y="1400.0"/>
      <point x="332.0" y="1304.0"/>
    </contour>
    <contour>
      <point x="986.0" y="1312.0" type="line"/>
      <point x="1210.0" y="1312.0" type="line"/>
      <point x="1332.0" y="2048.0" type="line"/>
      <point x="1108.0" y="2048.0" type="line"/>
    </contour>
    <contour>
      <point x="1338.0" y="1312.0" type="line"/>
      <point x="1466.0" y="1312.0" type="line"/>
      <point x="1860.0" y="2048.0" type="line"/>
      <point x="1676.0" y="2048.0" type="line"/>
      <point x="1450.0" y="1598.0" type="line"/>
      <point x="1372.0" y="2048.0" type="line"/>
      <point x="1188.0" y="2048.0" type="line"/>
    </contour>
    <contour>
      <point x="1594.0" y="1312.0" type="line"/>
      <point x="1818.0" y="1312.0" type="line"/>
      <point x="1940.0" y="2048.0" type="line"/>
      <point x="1716.0" y="2048.0" type="line"/>
    </contour>
  </outline>
</glyph>
<glyph name="tel" format="2">
  <advance width="2208.0"/>
  <unicode hex="2121"/>
  <outline>
    <contour>
      <point x="1002.0" y="1312.0" type="line"/>
      <point x="1546.0" y="1312.0" type="line"/>
      <point x="1576.0" y="1492.0" type="line"/>
      <point x="1256.0" y="1492.0" type="line"/>
      <point x="1318.0" y="1868.0" type="line"/>
      <point x="1638.0" y="1868.0" type="line"/>
      <point x="1668.0" y="2048.0" type="line"/>
      <point x="1124.0" y="2048.0" type="line"/>
    </contour>
    <contour>
      <point x="426.0" y="1312.0" type="line"/>
      <point x="650.0" y="1312.0" type="line"/>
      <point x="760.0" y="1984.0" type="line"/>
      <point x="536.0" y="1984.0" type="line"/>
    </contour>
    <contour>
      <point x="294.0" y="1868.0" type="line"/>
      <point x="966.0" y="1868.0" type="line"/>
      <point x="996.0" y="2048.0" type="line"/>
      <point x="324.0" y="2048.0" type="line"/>
    </contour>
    <contour>
      <point x="1222.0" y="1602.0" type="line"/>
      <point x="1530.0" y="1602.0" type="line"/>
      <point x="1558.0" y="1770.0" type="line"/>
      <point x="1250.0" y="1770.0" type="line"/>
    </contour>
    <contour>
      <point x="1674.0" y="1312.0" type="line"/>
      <point x="2186.0" y="1312.0" type="line"/>
      <point x="2216.0" y="1492.0" type="line"/>
      <point x="1928.0" y="1492.0" type="line"/>
      <point x="2020.0" y="2048.0" type="line"/>
      <point x="1796.0" y="2048.0" type="line"/>
    </contour>
  </outline>
</glyph>
<glyph name="trademark" format="2">
  <advance width="1872.0"/>
  <unicode hex="2122"/>
  <outline>
    <contour>
      <point x="1354.0" y="1312.0" type="line"/>
      <point x="1482.0" y="1312.0" type="line"/>
      <point x="1876.0" y="2048.0" type="line"/>
      <point x="1692.0" y="2048.0" type="line"/>
      <point x="1466.0" y="1598.0" type="line"/>
      <point x="1388.0" y="2048.0" type="line"/>
      <point x="1204.0" y="2048.0" type="line"/>
    </contour>
    <contour>
      <point x="1002.0" y="1312.0" type="line"/>
      <point x="1226.0" y="1312.0" type="line"/>
      <point x="1348.0" y="2048.0" type="line"/>
      <point x="1124.0" y="2048.0" type="line"/>
    </contour>
    <contour>
      <point x="1610.0" y="1312.0" type="line"/>
      <point x="1834.0" y="1312.0" type="line"/>
      <point x="1956.0" y="2048.0" type="line"/>
      <point x="1732.0" y="2048.0" type="line"/>
    </contour>
    <contour>
      <point x="426.0" y="1312.0" type="line"/>
      <point x="650.0" y="1312.0" type="line"/>
      <point x="760.0" y="1984.0" type="line"/>
      <point x="536.0" y="1984.0" type="line"/>
    </contour>
    <contour>
      <point x="294.0" y="1868.0" type="line"/>
      <point x="966.0" y="1868.0" type="line"/>
      <point x="996.0" y="2048.0" type="line"/>
      <point x="324.0" y="2048.0" type="line"/>
    </contour>
  </outline>
</glyph>
<glyph name="uni213B" format="2">
  <advance width="2326.0"/>
  <unicode hex="213B"/>
  <outline>
    <contour>
      <point x="218.0" y="1312.0" type="line"/>
      <point x="442.0" y="1312.0" type="line"/>
      <point x="478.0" y="1536.0" type="line"/>
      <point x="720.0" y="1536.0" type="line"/>
      <point x="750.0" y="1716.0" type="line"/>
      <point x="508.0" y="1716.0" type="line"/>
      <point x="534.0" y="1868.0" type="line"/>
      <point x="814.0" y="1868.0" type="line"/>
      <point x="844.0" y="2048.0" type="line"/>
      <point x="340.0" y="2048.0" type="line"/>
    </contour>
    <contour>
      <point x="712.0" y="1312.0" type="line"/>
      <point x="932.0" y="1312.0" type="line"/>
      <point x="1222.0" y="1808.0" type="line"/>
      <point x="1348.0" y="1312.0" type="line"/>
      <point x="1568.0" y="1312.0" type="line"/>
      <point x="1372.0" y="2048.0" type="line"/>
      <point x="1152.0" y="2048.0" type="line"/>
    </contour>
    <contour>
      <point x="942.0" y="1440.0" type="line"/>
      <point x="1396.0" y="1440.0" type="line"/>
      <point x="1424.0" y="1608.0" type="line"/>
      <point x="970.0" y="1608.0" type="line"/>
    </contour>
    <contour>
      <point x="1462.0" y="1312.0" type="line"/>
      <point x="1716.0" y="1312.0" type="line"/>
      <point x="2400.0" y="2048.0" type="line"/>
      <point x="2146.0" y="2048.0" type="line"/>
    </contour>
    <contour>
      <point x="2050.0" y="1312.0" type="line"/>
      <point x="2304.0" y="1312.0" type="line"/>
      <point x="1866.0" y="2048.0" type="line"/>
      <point x="1612.0" y="2048.0" type="line"/>
    </contour>
  </outline>
</glyph>
<glyph name="leftArrow" format="2">
  <advance width="2688.0"/>
  <unicode hex="2190"/>
  <note>
stroke (offset curve):
  L head: 32, 0%
  L stem: 32, 50%
  R head: 108, 0%
  R stem: 110, 50%
  B head: 200, 0%
  B stem: 208, 50%
</note>
  <guideline x="820.0" y="832.0" angle="90.0"/>
  <outline>
    <contour>
      <point x="1100.0" y="-64.0" type="line"/>
      <point x="1408.0" y="192.0" type="line"/>
      <point x="994.0" y="688.0" type="line"/>
      <point x="2322.0" y="688.0" type="line"/>
      <point x="2392.0" y="1104.0" type="line"/>
      <point x="1154.0" y="1104.0" type="line"/>
      <point x="1678.0" y="1552.0" type="line"/>
      <point x="1418.0" y="1856.0" type="line"/>
      <point x="298.0" y="896.0" type="line"/>
    </contour>
  </outline>
</glyph>
<glyph name="upArrow" format="2">
  <advance width="2688.0"/>
  <unicode hex="2191"/>
  <outline>
    <contour>
      <point x="1010.0" y="0.0" type="line"/>
      <point x="1426.0" y="0.0" type="line"/>
      <point x="1640.0" y="1286.0" type="line"/>
      <point x="2032.0" y="816.0" type="line"/>
      <point x="2360.0" y="1100.0" type="line"/>
      <point x="1560.0" y="2060.0" type="line"/>
      <point x="438.0" y="1100.0" type="line"/>
      <point x="678.0" y="816.0" type="line"/>
      <point x="1224.0" y="1286.0" type="line"/>
    </contour>
  </outline>
</glyph>
<glyph name="rightArrow" format="2">
  <advance width="2688.0"/>
  <unicode hex="2192"/>
  <outline>
    <contour>
      <point x="1630.0" y="1856.0" type="line"/>
      <point x="1322.0" y="1600.0" type="line"/>
      <point x="1736.0" y="1104.0" type="line"/>
      <point x="408.0" y="1104.0" type="line"/>
      <point x="338.0" y="688.0" type="line"/>
      <point x="1576.0" y="688.0" type="line"/>
      <point x="1052.0" y="240.0" type="line"/>
      <point x="1312.0" y="-64.0" type="line"/>
      <point x="2432.0" y="896.0" type="line"/>
    </contour>
  </outline>
</glyph>
<glyph name="leftRightArrow" format="2">
  <advance width="3776.0"/>
  <unicode hex="2194"/>
  <outline>
    <contour>
      <point x="1100.0" y="-64.0" type="line"/>
      <point x="1408.0" y="192.0" type="line"/>
      <point x="994.0" y="688.0" type="line"/>
      <point x="2664.0" y="688.0" type="line"/>
      <point x="2140.0" y="240.0" type="line"/>
      <point x="2400.0" y="-64.0" type="line"/>
      <point x="3520.0" y="896.0" type="line"/>
      <point x="2718.0" y="1856.0" type="line"/>
      <point x="2410.0" y="1600.0" type="line"/>
      <point x="2824.0" y="1104.0" type="line"/>
      <point x="1154.0" y="1104.0" type="line"/>
      <point x="1678.0" y="1552.0" type="line"/>
      <point x="1418.0" y="1856.0" type="line"/>
      <point x="298.0" y="896.0" type="line"/>
    </contour>
  </outline>
</glyph>
<glyph name="upDownArrow" format="2">
  <advance width="2688.0"/>
  <unicode hex="2195"/>
  <note>
vertical align with hyphen
</note>
  <outline>
    <contour>
      <point x="1104.0" y="-674.0" type="line"/>
      <point x="2224.0" y="286.0" type="line"/>
      <point x="1988.0" y="570.0" type="line"/>
      <point x="1442.0" y="100.0" type="line"/>
      <point x="1678.0" y="1532.0" type="line"/>
      <point x="2070.0" y="1062.0" type="line"/>
      <point x="2400.0" y="1346.0" type="line"/>
      <point x="1598.0" y="2306.0" type="line"/>
      <point x="480.0" y="1346.0" type="line"/>
      <point x="716.0" y="1062.0" type="line"/>
      <point x="1262.0" y="1532.0" type="line"/>
      <point x="1026.0" y="100.0" type="line"/>
      <point x="634.0" y="570.0" type="line"/>
      <point x="304.0" y="286.0" type="line"/>
    </contour>
  </outline>
</glyph>
<glyph name="northWestArrow" format="2">
  <advance width="2688.0"/>
  <unicode hex="2196"/>
  <outline>
    <contour>
      <point x="550.0" y="690.0" type="line"/>
      <point x="952.0" y="690.0" type="line"/>
      <point x="1060.0" y="1354.0" type="line"/>
      <point x="1818.0" y="446.0" type="line"/>
      <point x="2160.0" y="740.0" type="line"/>
      <point x="1404.0" y="1648.0" type="line"/>
      <point x="2070.0" y="1648.0" type="line"/>
      <point x="2134.0" y="2048.0" type="line"/>
      <point x="776.0" y="2048.0" type="line"/>
    </contour>
  </outline>
</glyph>
<glyph name="northEastArrow" format="2">
  <advance width="2688.0"/>
  <unicode hex="2197"/>
  <guideline x="1130.0" y="452.0" angle="90.0"/>
  <outline>
    <contour>
      <point x="762.0" y="446.0" type="line"/>
      <point x="1820.0" y="1354.0" type="line"/>
      <point x="1708.0" y="690.0" type="line"/>
      <point x="2110.0" y="690.0" type="line"/>
      <point x="2336.0" y="2048.0" type="line"/>
      <point x="978.0" y="2048.0" type="line"/>
      <point x="910.0" y="1648.0" type="line"/>
      <point x="1576.0" y="1648.0" type="line"/>
      <point x="516.0" y="740.0" type="line"/>
    </contour>
  </outline>
</glyph>
<glyph name="leftHookArrow" format="2">
  <advance width="3298.0"/>
  <unicode hex="21A9"/>
  <note>
stroke offset curve:
L head: 32, 0%
L stem: 32, 50%
R stem: 110, 50%
R head: 108, 0%
B head: 200, 0%
B stem: 208, 50%
</note>
  <outline>
    <contour>
      <point x="656.0" y="688.0" type="line"/>
      <point x="2300.0" y="688.0" type="line" smooth="yes"/>
      <point x="2694.0" y="688.0"/>
      <point x="3066.0" y="1007.0"/>
      <point x="3130.0" y="1400.0" type="curve" smooth="yes"/>
      <point x="3196.0" y="1793.0"/>
      <point x="2929.0" y="2112.0"/>
      <point x="2536.0" y="2112.0" type="curve" smooth="yes"/>
      <point x="2384.0" y="2112.0" type="line"/>
      <point x="2316.0" y="1696.0" type="line"/>
      <point x="2468.0" y="1696.0" type="line" smooth="yes"/>
      <point x="2631.0" y="1696.0"/>
      <point x="2742.0" y="1563.0"/>
      <point x="2714.0" y="1400.0" type="curve" smooth="yes"/>
      <point x="2687.0" y="1236.0"/>
      <point x="2534.0" y="1104.0"/>
      <point x="2370.0" y="1104.0" type="curve" smooth="yes"/>
      <point x="726.0" y="1104.0" type="line"/>
    </contour>
    <contour>
      <point x="1098.0" y="-64.0" type="line"/>
      <point x="1428.0" y="220.0" type="line"/>
      <point x="864.0" y="896.0" type="line"/>
      <point x="1652.0" y="1574.0" type="line"/>
      <point x="1416.0" y="1856.0" type="line"/>
      <point x="298.0" y="896.0" type="line"/>
    </contour>
  </outline>
</glyph>
<glyph name="rightHookArrow" format="2">
  <advance width="3298.0"/>
  <unicode hex="21AA"/>
  <note>
Mirror copy of leftHookArrow
</note>
  <outline>
    <contour>
      <point x="968.0" y="688.0" type="curve" smooth="yes"/>
      <point x="2612.0" y="688.0" type="line"/>
      <point x="2682.0" y="1104.0" type="line"/>
      <point x="1038.0" y="1104.0" type="line" smooth="yes"/>
      <point x="874.0" y="1104.0"/>
      <point x="764.0" y="1236.0"/>
      <point x="790.0" y="1400.0" type="curve" smooth="yes"/>
      <point x="818.0" y="1564.0"/>
      <point x="972.0" y="1696.0"/>
      <point x="1136.0" y="1696.0" type="curve" smooth="yes"/>
      <point x="1288.0" y="1696.0" type="line"/>
      <point x="1356.0" y="2112.0" type="line"/>
      <point x="1204.0" y="2112.0" type="line" smooth="yes"/>
      <point x="812.0" y="2112.0"/>
      <point x="440.0" y="1794.0"/>
      <point x="374.0" y="1400.0" type="curve" smooth="yes"/>
      <point x="310.0" y="1008.0"/>
      <point x="576.0" y="688.0"/>
    </contour>
    <contour>
      <point x="1922.0" y="-64.0" type="line"/>
      <point x="3042.0" y="896.0" type="line"/>
      <point x="2240.0" y="1856.0" type="line"/>
      <point x="1912.0" y="1574.0" type="line"/>
      <point x="2476.0" y="896.0" type="line"/>
      <point x="1688.0" y="220.0" type="line"/>
    </contour>
  </outline>
</glyph>
<glyph name="upTipLeftArrow" format="2">
  <advance width="2908.0"/>
  <unicode hex="21B0"/>
  <note>
Mirror copy of carriagereturn
</note>
  <outline>
    <contour>
      <point x="1012.0" y="644.0" type="line"/>
      <point x="1254.0" y="2112.0" type="line"/>
      <point x="378.0" y="1378.0" type="line"/>
    </contour>
    <contour>
      <point x="850.0" y="1170.0" type="line"/>
      <point x="2688.0" y="1170.0" type="line"/>
      <point x="2758.0" y="1586.0" type="line"/>
      <point x="920.0" y="1586.0" type="line"/>
    </contour>
    <contour>
      <point x="2092.0" y="0.0" type="line"/>
      <point x="2500.0" y="0.0" type="line"/>
      <point x="2764.0" y="1586.0" type="line"/>
      <point x="2356.0" y="1586.0" type="line"/>
    </contour>
  </outline>
</glyph>
<glyph name="upTipRightArrow" format="2">
  <advance width="2906.0"/>
  <unicode hex="21B1"/>
  <note>
Mirror copy of carriagereturn
</note>
  <outline>
    <contour>
      <point x="1856.0" y="644.0" type="line"/>
      <point x="2730.0" y="1378.0" type="line"/>
      <point x="2098.0" y="2112.0" type="line"/>
    </contour>
    <contour>
      <point x="152.0" y="0.0" type="line"/>
      <point x="560.0" y="0.0" type="line"/>
      <point x="824.0" y="1586.0" type="line"/>
      <point x="416.0" y="1586.0" type="line"/>
    </contour>
    <contour>
      <point x="352.0" y="1170.0" type="line"/>
      <point x="2190.0" y="1170.0" type="line"/>
      <point x="2260.0" y="1586.0" type="line"/>
      <point x="422.0" y="1586.0" type="line"/>
    </contour>
  </outline>
</glyph>
<glyph name="downTipRightArrow" format="2">
  <advance width="2908.0"/>
  <unicode hex="21B3"/>
  <note>
Mirror copy of carriagereturn
</note>
  <outline>
    <contour>
      <point x="1776.0" y="162.0" type="line"/>
      <point x="2652.0" y="896.0" type="line"/>
      <point x="2018.0" y="1630.0" type="line"/>
    </contour>
    <contour>
      <point x="266.0" y="688.0" type="line"/>
      <point x="674.0" y="688.0" type="line"/>
      <point x="900.0" y="2048.0" type="line"/>
      <point x="492.0" y="2048.0" type="line"/>
    </contour>
    <contour>
      <point x="272.0" y="688.0" type="line"/>
      <point x="2110.0" y="688.0" type="line"/>
      <point x="2180.0" y="1104.0" type="line"/>
      <point x="342.0" y="1104.0" type="line"/>
    </contour>
  </outline>
</glyph>
<glyph name="rightCornerDownArrow" format="2">
  <advance width="2670.0"/>
  <unicode hex="21B4"/>
  <note>
Mirror copy of carriagereturn
</note>
  <outline>
    <contour>
      <point x="1526.0" y="-32.0" type="line"/>
      <point x="2384.0" y="724.0" type="line"/>
      <point x="916.0" y="724.0" type="line"/>
    </contour>
    <contour>
      <point x="1402.0" y="476.0" type="line"/>
      <point x="1818.0" y="476.0" type="line"/>
      <point x="2076.0" y="2042.0" type="line"/>
      <point x="1660.0" y="2042.0" type="line"/>
    </contour>
    <contour>
      <point x="424.0" y="1640.0" type="line"/>
      <point x="2010.0" y="1640.0" type="line"/>
      <point x="2078.0" y="2048.0" type="line"/>
      <point x="492.0" y="2048.0" type="line"/>
    </contour>
  </outline>
</glyph>
<glyph name="carriagereturn" format="2">
  <advance width="2908.0"/>
  <unicode hex="21B5"/>
  <outline>
    <contour>
      <point x="932.0" y="162.0" type="line"/>
      <point x="1174.0" y="1630.0" type="line"/>
      <point x="300.0" y="896.0" type="line"/>
    </contour>
    <contour>
      <point x="770.0" y="688.0" type="line"/>
      <point x="2608.0" y="688.0" type="line"/>
      <point x="2678.0" y="1104.0" type="line"/>
      <point x="840.0" y="1104.0" type="line"/>
    </contour>
    <contour>
      <point x="2206.0" y="688.0" type="line"/>
      <point x="2614.0" y="688.0" type="line"/>
      <point x="2840.0" y="2048.0" type="line"/>
      <point x="2432.0" y="2048.0" type="line"/>
    </contour>
  </outline>
</glyph>
<glyph name="anticlockwiseOpenCircleArrow" format="2">
  <advance width="2688.0"/>
  <unicode hex="21BA"/>
  <outline>
    <contour>
      <point x="1488.0" y="1632.0" type="line"/>
      <point x="1824.0" y="1632.0"/>
      <point x="2050.0" y="1362.0"/>
      <point x="1994.0" y="1024.0" type="curve" smooth="yes"/>
      <point x="1940.0" y="688.0"/>
      <point x="1622.0" y="416.0"/>
      <point x="1286.0" y="416.0" type="curve" smooth="yes"/>
      <point x="950.0" y="416.0"/>
      <point x="722.0" y="688.0"/>
      <point x="778.0" y="1024.0" type="curve"/>
      <point x="362.0" y="1024.0" type="line"/>
      <point x="268.0" y="458.0"/>
      <point x="652.0" y="0.0"/>
      <point x="1216.0" y="0.0" type="curve" smooth="yes"/>
      <point x="1784.0" y="0.0"/>
      <point x="2318.0" y="458.0"/>
      <point x="2410.0" y="1024.0" type="curve" smooth="yes"/>
      <point x="2504.0" y="1590.0"/>
      <point x="2122.0" y="2048.0"/>
      <point x="1556.0" y="2048.0" type="curve"/>
    </contour>
    <contour>
      <point x="1430.0" y="1094.0" type="line"/>
      <point x="1672.0" y="2562.0" type="line"/>
      <point x="798.0" y="1828.0" type="line"/>
    </contour>
  </outline>
</glyph>
<glyph name="clockwiseOpenCircleArrow" format="2">
  <advance width="2688.0"/>
  <unicode hex="21BB"/>
  <outline>
    <contour>
      <point x="1216.0" y="0.0" type="curve" smooth="yes"/>
      <point x="1782.0" y="0.0"/>
      <point x="2318.0" y="458.0"/>
      <point x="2410.0" y="1024.0" type="curve"/>
      <point x="1994.0" y="1024.0" type="line"/>
      <point x="1940.0" y="688.0"/>
      <point x="1622.0" y="416.0"/>
      <point x="1286.0" y="416.0" type="curve" smooth="yes"/>
      <point x="948.0" y="416.0"/>
      <point x="722.0" y="688.0"/>
      <point x="778.0" y="1024.0" type="curve" smooth="yes"/>
      <point x="836.0" y="1362.0"/>
      <point x="1150.0" y="1632.0"/>
      <point x="1488.0" y="1632.0" type="curve"/>
      <point x="1556.0" y="2048.0" type="line"/>
      <point x="988.0" y="2048.0"/>
      <point x="458.0" y="1590.0"/>
      <point x="362.0" y="1024.0" type="curve" smooth="yes"/>
      <point x="268.0" y="458.0"/>
      <point x="650.0" y="0.0"/>
    </contour>
    <contour>
      <point x="1366.0" y="1094.0" type="line"/>
      <point x="2242.0" y="1828.0" type="line"/>
      <point x="1608.0" y="2562.0" type="line"/>
    </contour>
  </outline>
</glyph>
<glyph name="pageup" format="2">
  <advance width="1852.0"/>
  <unicode hex="21DE"/>
  <outline>
    <contour>
      <point x="294.0" y="1376.0" type="line"/>
      <point x="1762.0" y="1376.0" type="line"/>
      <point x="1152.0" y="2130.0" type="line"/>
    </contour>
    <contour>
      <point x="360.0" y="308.0" type="line"/>
      <point x="1340.0" y="308.0" type="line"/>
      <point x="1404.0" y="688.0" type="line"/>
      <point x="424.0" y="688.0" type="line"/>
    </contour>
    <contour>
      <point x="592.0" y="0.0" type="line"/>
      <point x="1008.0" y="0.0" type="line"/>
      <point x="1288.0" y="1690.0" type="line"/>
      <point x="872.0" y="1690.0" type="line"/>
    </contour>
    <contour>
      <point x="450.0" y="842.0" type="line"/>
      <point x="1430.0" y="842.0" type="line"/>
      <point x="1492.0" y="1222.0" type="line"/>
      <point x="512.0" y="1222.0" type="line"/>
    </contour>
  </outline>
</glyph>
<glyph name="pagedown" format="2">
  <advance width="1852.0"/>
  <unicode hex="21DF"/>
  <outline>
    <contour>
      <point x="788.0" y="-62.0" type="line"/>
      <point x="1648.0" y="692.0" type="line"/>
      <point x="180.0" y="692.0" type="line"/>
    </contour>
    <contour>
      <point x="448.0" y="846.0" type="line"/>
      <point x="1428.0" y="846.0" type="line"/>
      <point x="1492.0" y="1226.0" type="line"/>
      <point x="512.0" y="1226.0" type="line"/>
    </contour>
    <contour>
      <point x="654.0" y="378.0" type="line"/>
      <point x="1070.0" y="378.0" type="line"/>
      <point x="1350.0" y="2068.0" type="line"/>
      <point x="934.0" y="2068.0" type="line"/>
    </contour>
    <contour>
      <point x="538.0" y="1380.0" type="line"/>
      <point x="1518.0" y="1380.0" type="line"/>
      <point x="1580.0" y="1760.0" type="line"/>
      <point x="600.0" y="1760.0" type="line"/>
    </contour>
  </outline>
</glyph>
<glyph name="arrowtableft" format="2">
  <advance width="3040.0"/>
  <unicode hex="21E4"/>
  <outline>
    <contour>
      <point x="1540.0" y="290.0" type="line"/>
      <point x="1784.0" y="1758.0" type="line"/>
      <point x="908.0" y="1024.0" type="line"/>
    </contour>
    <contour>
      <point x="178.0" y="292.0" type="line"/>
      <point x="586.0" y="292.0" type="line"/>
      <point x="828.0" y="1756.0" type="line"/>
      <point x="420.0" y="1756.0" type="line"/>
    </contour>
    <contour>
      <point x="1286.0" y="816.0" type="line"/>
      <point x="2792.0" y="816.0" type="line"/>
      <point x="2860.0" y="1232.0" type="line"/>
      <point x="1354.0" y="1232.0" type="line"/>
    </contour>
  </outline>
</glyph>
<glyph name="arrowtabright" format="2">
  <advance width="3040.0"/>
  <unicode hex="21E5"/>
  <note>
Mirror copy of arrowtableft
</note>
  <outline>
    <contour>
      <point x="1340.0" y="290.0" type="line"/>
      <point x="2216.0" y="1024.0" type="line"/>
      <point x="1584.0" y="1758.0" type="line"/>
    </contour>
    <contour>
      <point x="264.0" y="816.0" type="line"/>
      <point x="1770.0" y="816.0" type="line"/>
      <point x="1838.0" y="1232.0" type="line"/>
      <point x="332.0" y="1232.0" type="line"/>
    </contour>
    <contour>
      <point x="2298.0" y="292.0" type="line"/>
      <point x="2706.0" y="292.0" type="line"/>
      <point x="2948.0" y="1756.0" type="line"/>
      <point x="2540.0" y="1756.0" type="line"/>
    </contour>
  </outline>
</glyph>
<glyph name="capslock" format="2">
  <advance width="3264.0"/>
  <unicode hex="21EA"/>
  <note>
Based on upWhiteArrow
</note>
  <outline>
    <contour>
      <point x="818.0" y="300.0" type="line"/>
      <point x="2290.0" y="300.0" type="line"/>
      <point x="2368.0" y="768.0" type="line"/>
      <point x="3072.0" y="768.0" type="line"/>
      <point x="1870.0" y="2208.0" type="line"/>
      <point x="192.0" y="768.0" type="line"/>
      <point x="896.0" y="768.0" type="line"/>
    </contour>
    <contour>
      <point x="668.0" y="-608.0" type="line"/>
      <point x="2140.0" y="-608.0" type="line"/>
      <point x="2262.0" y="126.0" type="line"/>
      <point x="790.0" y="126.0" type="line"/>
    </contour>
    <contour>
      <point x="1130.0" y="-328.0" type="line"/>
      <point x="1160.0" y="-154.0" type="line"/>
      <point x="1800.0" y="-154.0" type="line"/>
      <point x="1770.0" y="-328.0" type="line"/>
    </contour>
    <contour>
      <point x="1284.0" y="600.0" type="line"/>
      <point x="1362.0" y="1068.0" type="line"/>
      <point x="1048.0" y="1068.0" type="line"/>
      <point x="1786.0" y="1702.0" type="line"/>
      <point x="2316.0" y="1068.0" type="line"/>
      <point x="2002.0" y="1068.0" type="line"/>
      <point x="1924.0" y="600.0" type="line"/>
    </contour>
  </outline>
</glyph>
<glyph name="control" format="2">
  <advance width="2240.0"/>
  <unicode hex="2303"/>
  <note>
stroke:
L: 32,32,100%
R: 108,108,100%
B: 200,200,100%
</note>
  <outline>
    <contour>
      <point x="562.0" y="902.0" type="line"/>
      <point x="1262.0" y="1502.0" type="line"/>
      <point x="1764.0" y="902.0" type="line"/>
      <point x="2078.0" y="1174.0" type="line"/>
      <point x="1336.0" y="2068.0" type="line"/>
      <point x="308.0" y="1186.0" type="line"/>
    </contour>
  </outline>
</glyph>
<glyph name="projective" format="2">
  <advance width="2240.0"/>
  <unicode hex="2305"/>
  <note>
Based on control
</note>
  <outline>
    <contour>
      <point x="384.0" y="1632.0" type="line"/>
      <point x="2144.0" y="1632.0" type="line"/>
      <point x="2212.0" y="2048.0" type="line"/>
      <point x="452.0" y="2048.0" type="line"/>
    </contour>
    <component base="control" xOffset="-90.0" yOffset="-512.0"/>
  </outline>
</glyph>
<glyph name="placeofinterestsign" format="2">
  <advance width="2648.0"/>
  <unicode hex="2318"/>
  <outline>
    <contour>
      <point x="614.0" y="-44.0" type="curve" smooth="yes"/>
      <point x="887.0" y="-44.0"/>
      <point x="1144.0" y="178.0"/>
      <point x="1190.0" y="448.0" type="curve" smooth="yes"/>
      <point x="1218.0" y="622.0" type="line"/>
      <point x="1384.0" y="622.0" type="line"/>
      <point x="1356.0" y="448.0" type="line" smooth="yes"/>
      <point x="1310.0" y="178.0"/>
      <point x="1494.0" y="-44.0"/>
      <point x="1766.0" y="-44.0" type="curve" smooth="yes"/>
      <point x="2038.0" y="-44.0"/>
      <point x="2295.0" y="176.0"/>
      <point x="2340.0" y="448.0" type="curve" smooth="yes"/>
      <point x="2385.0" y="720.0"/>
      <point x="2200.0" y="942.0"/>
      <point x="1928.0" y="942.0" type="curve" smooth="yes"/>
      <point x="1756.0" y="942.0" type="line"/>
      <point x="1784.0" y="1108.0" type="line"/>
      <point x="1956.0" y="1108.0" type="line" smooth="yes"/>
      <point x="2228.0" y="1108.0"/>
      <point x="2485.0" y="1328.0"/>
      <point x="2530.0" y="1600.0" type="curve" smooth="yes"/>
      <point x="2575.0" y="1872.0"/>
      <point x="2392.0" y="2092.0"/>
      <point x="2120.0" y="2092.0" type="curve" smooth="yes"/>
      <point x="1848.0" y="2092.0"/>
      <point x="1590.0" y="1872.0"/>
      <point x="1546.0" y="1600.0" type="curve" smooth="yes"/>
      <point x="1518.0" y="1428.0" type="line"/>
      <point x="1352.0" y="1428.0" type="line"/>
      <point x="1380.0" y="1600.0" type="line" smooth="yes"/>
      <point x="1424.0" y="1872.0"/>
      <point x="1240.0" y="2092.0"/>
      <point x="968.0" y="2092.0" type="curve" smooth="yes"/>
      <point x="696.0" y="2092.0"/>
      <point x="439.0" y="1872.0"/>
      <point x="394.0" y="1600.0" type="curve" smooth="yes"/>
      <point x="349.0" y="1328.0"/>
      <point x="534.0" y="1108.0"/>
      <point x="804.0" y="1108.0" type="curve" smooth="yes"/>
      <point x="978.0" y="1108.0" type="line"/>
      <point x="950.0" y="942.0" type="line"/>
      <point x="776.0" y="942.0" type="line" smooth="yes"/>
      <point x="506.0" y="942.0"/>
      <point x="249.0" y="720.0"/>
      <point x="204.0" y="448.0" type="curve" smooth="yes"/>
      <point x="159.0" y="176.0"/>
      <point x="343.0" y="-44.0"/>
    </contour>
    <contour>
      <point x="666.0" y="276.0" type="curve" smooth="yes"/>
      <point x="570.0" y="276.0"/>
      <point x="510.0" y="359.0"/>
      <point x="524.0" y="448.0" type="curve" smooth="yes"/>
      <point x="540.0" y="549.0"/>
      <point x="648.0" y="622.0"/>
      <point x="744.0" y="622.0" type="curve" smooth="yes"/>
      <point x="898.0" y="622.0" type="line"/>
      <point x="870.0" y="448.0" type="line" smooth="yes"/>
      <point x="852.0" y="354.0"/>
      <point x="760.0" y="276.0"/>
    </contour>
    <contour>
      <point x="858.0" y="1428.0" type="line" smooth="yes"/>
      <point x="762.0" y="1428.0"/>
      <point x="699.0" y="1510.0"/>
      <point x="714.0" y="1600.0" type="curve" smooth="yes"/>
      <point x="731.0" y="1702.0"/>
      <point x="841.0" y="1772.0"/>
      <point x="934.0" y="1772.0" type="curve" smooth="yes"/>
      <point x="1031.0" y="1772.0"/>
      <point x="1074.0" y="1696.0"/>
      <point x="1060.0" y="1600.0" type="curve" smooth="yes"/>
      <point x="1032.0" y="1428.0" type="line"/>
    </contour>
    <contour>
      <point x="1838.0" y="1428.0" type="line"/>
      <point x="1866.0" y="1600.0" type="line" smooth="yes"/>
      <point x="1880.0" y="1696.0"/>
      <point x="1990.0" y="1772.0"/>
      <point x="2086.0" y="1772.0" type="curve" smooth="yes"/>
      <point x="2182.0" y="1772.0"/>
      <point x="2225.0" y="1689.0"/>
      <point x="2210.0" y="1600.0" type="curve" smooth="yes"/>
      <point x="2193.0" y="1497.0"/>
      <point x="2104.0" y="1428.0"/>
      <point x="2010.0" y="1428.0" type="curve" smooth="yes"/>
    </contour>
    <contour>
      <point x="1818.0" y="276.0" type="curve" smooth="yes"/>
      <point x="1719.0" y="276.0"/>
      <point x="1658.0" y="354.0"/>
      <point x="1676.0" y="448.0" type="curve" smooth="yes"/>
      <point x="1704.0" y="622.0" type="line"/>
      <point x="1896.0" y="622.0" type="line" smooth="yes"/>
      <point x="1990.0" y="622.0"/>
      <point x="2034.0" y="535.0"/>
      <point x="2020.0" y="448.0" type="curve" smooth="yes"/>
      <point x="2004.0" y="345.0"/>
      <point x="1911.0" y="276.0"/>
    </contour>
    <contour>
      <point x="1270.0" y="942.0" type="line"/>
      <point x="1298.0" y="1108.0" type="line"/>
      <point x="1464.0" y="1108.0" type="line"/>
      <point x="1436.0" y="942.0" type="line"/>
    </contour>
  </outline>
</glyph>
<glyph name="option" format="2">
  <advance width="2880.0"/>
  <unicode hex="2325"/>
  <note>
stroke:
L: 32,32,50%
R: 108,110,50%
B: 208,200,50%
</note>
  <outline>
    <contour>
      <point x="1878.0" y="2048.0" type="line"/>
      <point x="1810.0" y="1632.0" type="line"/>
      <point x="2768.0" y="1632.0" type="line"/>
      <point x="2836.0" y="2048.0" type="line"/>
    </contour>
    <contour>
      <point x="400.0" y="1632.0" type="line"/>
      <point x="1054.0" y="1632.0" type="line"/>
      <point x="1604.0" y="0.0" type="line"/>
      <point x="2496.0" y="0.0" type="line"/>
      <point x="2566.0" y="416.0" type="line"/>
      <point x="1914.0" y="416.0" type="line"/>
      <point x="1360.0" y="2048.0" type="line"/>
      <point x="468.0" y="2048.0" type="line"/>
    </contour>
  </outline>
</glyph>
<glyph name="deleteright" format="2">
  <advance width="3424.0"/>
  <unicode hex="2326"/>
  <outline>
    <contour>
      <point x="128.0" y="0.0" type="line"/>
      <point x="2040.0" y="0.0" type="line"/>
      <point x="3228.0" y="1024.0" type="line"/>
      <point x="2380.0" y="2048.0" type="line"/>
      <point x="468.0" y="2048.0" type="line"/>
    </contour>
    <contour>
      <point x="1114.0" y="464.0" type="line"/>
      <point x="2116.0" y="1296.0" type="line"/>
      <point x="1886.0" y="1584.0" type="line"/>
      <point x="884.0" y="752.0" type="line"/>
    </contour>
    <contour>
      <point x="1700.0" y="464.0" type="line"/>
      <point x="2026.0" y="752.0" type="line"/>
      <point x="1300.0" y="1584.0" type="line"/>
      <point x="974.0" y="1296.0" type="line"/>
    </contour>
    <contour>
      <point x="612.0" y="400.0" type="line"/>
      <point x="818.0" y="1648.0" type="line"/>
      <point x="2136.0" y="1648.0" type="line"/>
      <point x="2654.0" y="1024.0" type="line"/>
      <point x="1930.0" y="400.0" type="line"/>
    </contour>
  </outline>
</glyph>
<glyph name="clear" format="2">
  <advance width="2878.0"/>
  <unicode hex="2327"/>
  <note>
Based on deleteleft
</note>
  <outline>
    <contour>
      <point x="128.0" y="0.0" type="line"/>
      <point x="2494.0" y="0.0" type="line"/>
      <point x="2834.0" y="2048.0" type="line"/>
      <point x="468.0" y="2048.0" type="line"/>
    </contour>
    <contour>
      <point x="596.0" y="400.0" type="line"/>
      <point x="802.0" y="1648.0" type="line"/>
      <point x="2368.0" y="1648.0" type="line"/>
      <point x="2162.0" y="400.0" type="line"/>
    </contour>
    <contour>
      <point x="1682.0" y="464.0" type="line"/>
      <point x="2008.0" y="752.0" type="line"/>
      <point x="1282.0" y="1584.0" type="line"/>
      <point x="956.0" y="1296.0" type="line"/>
    </contour>
    <contour>
      <point x="1096.0" y="464.0" type="line"/>
      <point x="2098.0" y="1296.0" type="line"/>
      <point x="1868.0" y="1584.0" type="line"/>
      <point x="866.0" y="752.0" type="line"/>
    </contour>
  </outline>
</glyph>
<glyph name="deleteleft" format="2">
  <advance width="3424.0"/>
  <unicode hex="232B"/>
  <note>
stroke:
L: 32
R outer: 108,110,100%
R x: 104,104,50%
B outer: 208,200,100%
B x: 200,200,50%
</note>
  <outline>
    <contour>
      <point x="1128.0" y="0.0" type="line"/>
      <point x="3040.0" y="0.0" type="line"/>
      <point x="3380.0" y="2048.0" type="line"/>
      <point x="1468.0" y="2048.0" type="line"/>
      <point x="280.0" y="1024.0" type="line"/>
    </contour>
    <contour>
      <point x="1374.0" y="400.0" type="line"/>
      <point x="856.0" y="1024.0" type="line"/>
      <point x="1580.0" y="1648.0" type="line"/>
      <point x="2898.0" y="1648.0" type="line"/>
      <point x="2692.0" y="400.0" type="line"/>
    </contour>
    <contour>
      <point x="2536.0" y="752.0" type="line"/>
      <point x="1810.0" y="1584.0" type="line"/>
      <point x="1484.0" y="1296.0" type="line"/>
      <point x="2210.0" y="464.0" type="line"/>
    </contour>
    <contour>
      <point x="1624.0" y="464.0" type="line"/>
      <point x="2626.0" y="1296.0" type="line"/>
      <point x="2396.0" y="1584.0" type="line"/>
      <point x="1394.0" y="752.0" type="line"/>
    </contour>
  </outline>
</glyph>
<glyph name="alternativekeysymbol" format="2">
  <advance width="2880.0"/>
  <unicode hex="2387"/>
  <note>
Mirror copy of option
</note>
  <outline>
    <contour>
      <point x="128.0" y="0.0" type="line"/>
      <point x="1020.0" y="0.0" type="line"/>
      <point x="2116.0" y="1632.0" type="line"/>
      <point x="2768.0" y="1632.0" type="line"/>
      <point x="2836.0" y="2048.0" type="line"/>
      <point x="1944.0" y="2048.0" type="line"/>
      <point x="852.0" y="416.0" type="line"/>
      <point x="198.0" y="416.0" type="line"/>
    </contour>
    <contour>
      <point x="1538.0" y="0.0" type="line"/>
      <point x="2496.0" y="0.0" type="line"/>
      <point x="2566.0" y="416.0" type="line"/>
      <point x="1608.0" y="416.0" type="line"/>
    </contour>
  </outline>
</glyph>
<glyph name="returnsymbol" format="2">
  <advance width="2908.0"/>
  <unicode hex="23CE"/>
  <outline>
    <contour>
      <point x="932.0" y="162.0" type="line"/>
      <point x="1174.0" y="1630.0" type="line"/>
      <point x="300.0" y="896.0" type="line"/>
    </contour>
    <contour>
      <point x="770.0" y="688.0" type="line"/>
      <point x="2608.0" y="688.0" type="line"/>
      <point x="2678.0" y="1104.0" type="line"/>
      <point x="840.0" y="1104.0" type="line"/>
    </contour>
    <contour>
      <point x="2206.0" y="688.0" type="line"/>
      <point x="2614.0" y="688.0" type="line"/>
      <point x="2840.0" y="2048.0" type="line"/>
      <point x="2432.0" y="2048.0" type="line"/>
    </contour>
    <contour>
      <point x="1840.0" y="1632.0" type="line"/>
      <point x="2766.0" y="1632.0" type="line"/>
      <point x="2834.0" y="2048.0" type="line"/>
      <point x="1908.0" y="2048.0" type="line"/>
    </contour>
  </outline>
</glyph>
<glyph name="ejectsymbol" format="2">
  <advance width="2432.0"/>
  <unicode hex="23CF"/>
  <outline>
    <contour>
      <point x="108.0" y="280.0" type="line"/>
      <point x="2162.0" y="280.0" type="line"/>
      <point x="2238.0" y="740.0" type="line"/>
      <point x="184.0" y="740.0" type="line"/>
    </contour>
    <contour>
      <point x="226.0" y="1024.0" type="line"/>
      <point x="2290.0" y="1024.0" type="line"/>
      <point x="1432.0" y="2078.0" type="line"/>
    </contour>
  </outline>
</glyph>
<glyph name="circlewhite" format="2">
  <advance width="2576.0"/>
  <unicode hex="25CB"/>
  <guideline x="1936.0" y="1652.0" angle="0.0"/>
  <guideline x="916.0" y="1008.0" angle="90.0"/>
  <guideline x="934.0" y="388.0" angle="0.0"/>
  <guideline x="2120.0" y="952.0" angle="90.0"/>
  <outline>
    <contour>
      <point x="1156.0" y="-32.0" type="curve" smooth="yes"/>
      <point x="1740.0" y="-32.0"/>
      <point x="2292.0" y="442.0"/>
      <point x="2386.0" y="1024.0" type="curve" smooth="yes"/>
      <point x="2480.0" y="1608.0"/>
      <point x="2090.0" y="2080.0"/>
      <point x="1506.0" y="2080.0" type="curve" smooth="yes"/>
      <point x="924.0" y="2080.0"/>
      <point x="372.0" y="1608.0"/>
      <point x="274.0" y="1024.0" type="curve" smooth="yes"/>
      <point x="176.0" y="442.0"/>
      <point x="574.0" y="-32.0"/>
    </contour>
    <contour>
      <point x="1208.0" y="288.0" type="curve" smooth="yes"/>
      <point x="802.0" y="288.0"/>
      <point x="526.0" y="620.0"/>
      <point x="594.0" y="1024.0" type="curve" smooth="yes"/>
      <point x="662.0" y="1430.0"/>
      <point x="1048.0" y="1760.0"/>
      <point x="1452.0" y="1760.0" type="curve" smooth="yes"/>
      <point x="1860.0" y="1760.0"/>
      <point x="2132.0" y="1432.0"/>
      <point x="2066.0" y="1024.0" type="curve" smooth="yes"/>
      <point x="2000.0" y="618.0"/>
      <point x="1616.0" y="288.0"/>
    </contour>
  </outline>
</glyph>
<glyph name="openbullet" format="2">
  <advance width="1120.0"/>
  <unicode hex="25E6"/>
  <guideline x="1104.0" y="816.0" angle="0.0"/>
  <outline>
    <contour>
      <point x="492.0" y="376.0" type="curve" smooth="yes"/>
      <point x="736.0" y="376.0"/>
      <point x="968.0" y="572.0"/>
      <point x="1008.0" y="816.0" type="curve" smooth="yes"/>
      <point x="1048.0" y="1060.0"/>
      <point x="884.0" y="1256.0"/>
      <point x="640.0" y="1256.0" type="curve" smooth="yes"/>
      <point x="396.0" y="1256.0"/>
      <point x="168.0" y="1060.0"/>
      <point x="128.0" y="816.0" type="curve" smooth="yes"/>
      <point x="88.0" y="572.0"/>
      <point x="252.0" y="376.0"/>
    </contour>
    <contour>
      <point x="536.0" y="636.0" type="curve" smooth="yes"/>
      <point x="436.0" y="636.0"/>
      <point x="372.0" y="716.0"/>
      <point x="388.0" y="816.0" type="curve" smooth="yes"/>
      <point x="404.0" y="916.0"/>
      <point x="496.0" y="996.0"/>
      <point x="596.0" y="996.0" type="curve" smooth="yes"/>
      <point x="696.0" y="996.0"/>
      <point x="764.0" y="916.0"/>
      <point x="748.0" y="816.0" type="curve" smooth="yes"/>
      <point x="732.0" y="716.0"/>
      <point x="636.0" y="636.0"/>
    </contour>
  </outline>
</glyph>
<glyph name="blackSunWithRays" format="2">
  <advance width="3008.0"/>
  <unicode hex="2600"/>
  <outline>
    <contour>
      <point x="1470.0" y="572.0" type="curve" smooth="yes"/>
      <point x="1718.0" y="572.0"/>
      <point x="1954.0" y="776.0"/>
      <point x="1998.0" y="1024.0" type="curve" smooth="yes"/>
      <point x="2042.0" y="1271.0"/>
      <point x="1866.0" y="1476.0"/>
      <point x="1622.0" y="1476.0" type="curve" smooth="yes"/>
      <point x="1370.0" y="1476.0"/>
      <point x="1134.0" y="1272.0"/>
      <point x="1094.0" y="1024.0" type="curve" smooth="yes"/>
      <point x="1054.0" y="775.0"/>
      <point x="1218.0" y="572.0"/>
    </contour>
    <contour>
      <point x="1530.0" y="1676.0" type="line"/>
      <point x="1778.0" y="1676.0" type="line"/>
      <point x="1878.0" y="2284.0" type="line"/>
      <point x="1630.0" y="2284.0" type="line"/>
    </contour>
    <contour>
      <point x="2154.0" y="1396.0" type="line"/>
      <point x="2658.0" y="1828.0" type="line"/>
      <point x="2510.0" y="2004.0" type="line"/>
      <point x="2010.0" y="1572.0" type="line"/>
    </contour>
    <contour>
      <point x="2178.0" y="900.0" type="line"/>
      <point x="2786.0" y="900.0" type="line"/>
      <point x="2826.0" y="1148.0" type="line"/>
      <point x="2218.0" y="1148.0" type="line"/>
    </contour>
    <contour>
      <point x="2186.0" y="44.0" type="line"/>
      <point x="2394.0" y="220.0" type="line"/>
      <point x="2034.0" y="652.0" type="line"/>
      <point x="1826.0" y="476.0" type="line"/>
    </contour>
    <contour>
      <point x="1214.0" y="-236.0" type="line"/>
      <point x="1462.0" y="-236.0" type="line"/>
      <point x="1562.0" y="372.0" type="line"/>
      <point x="1314.0" y="372.0" type="line"/>
    </contour>
    <contour>
      <point x="578.0" y="44.0" type="line"/>
      <point x="1082.0" y="476.0" type="line"/>
      <point x="938.0" y="652.0" type="line"/>
      <point x="434.0" y="220.0" type="line"/>
    </contour>
    <contour>
      <point x="266.0" y="900.0" type="line"/>
      <point x="874.0" y="900.0" type="line"/>
      <point x="914.0" y="1148.0" type="line"/>
      <point x="306.0" y="1148.0" type="line"/>
    </contour>
    <contour>
      <point x="1058.0" y="1396.0" type="line"/>
      <point x="1266.0" y="1572.0" type="line"/>
      <point x="902.0" y="2004.0" type="line"/>
      <point x="698.0" y="1828.0" type="line"/>
    </contour>
  </outline>
</glyph>
<glyph name="whitestar" format="2">
  <advance width="2944.0"/>
  <unicode hex="2606"/>
  <outline>
    <contour>
      <point x="1432.0" y="526.0" type="line"/>
      <point x="2098.0" y="-20.0" type="line"/>
      <point x="1946.0" y="868.0" type="line"/>
      <point x="2796.0" y="1416.0" type="line"/>
      <point x="1868.0" y="1416.0" type="line"/>
      <point x="1726.0" y="2304.0" type="line"/>
      <point x="1292.0" y="1416.0" type="line"/>
      <point x="364.0" y="1416.0" type="line"/>
      <point x="1030.0" y="868.0" type="line"/>
      <point x="586.0" y="-20.0" type="line"/>
    </contour>
    <contour>
      <point x="1486.0" y="848.0" type="line"/>
      <point x="1202.0" y="666.0" type="line"/>
      <point x="1354.0" y="968.0" type="line"/>
      <point x="1124.0" y="1156.0" type="line"/>
      <point x="1438.0" y="1156.0" type="line"/>
      <point x="1586.0" y="1462.0" type="line"/>
      <point x="1636.0" y="1156.0" type="line"/>
      <point x="1950.0" y="1156.0" type="line"/>
      <point x="1656.0" y="968.0" type="line"/>
      <point x="1706.0" y="666.0" type="line"/>
    </contour>
  </outline>
</glyph>
<glyph name="leftLongArrow" format="2">
  <advance width="3776.0"/>
  <unicode hex="27F5"/>
  <outline>
    <contour>
      <point x="1100.0" y="-64.0" type="line"/>
      <point x="1408.0" y="192.0" type="line"/>
      <point x="994.0" y="688.0" type="line"/>
      <point x="3410.0" y="688.0" type="line"/>
      <point x="3480.0" y="1104.0" type="line"/>
      <point x="1154.0" y="1104.0" type="line"/>
      <point x="1678.0" y="1552.0" type="line"/>
      <point x="1418.0" y="1856.0" type="line"/>
      <point x="298.0" y="896.0" type="line"/>
    </contour>
  </outline>
</glyph>
<glyph name="rightLongArrow" format="2">
  <advance width="3776.0"/>
  <unicode hex="27F6"/>
  <guideline x="924.0" y="832.0" angle="90.0"/>
  <outline>
    <contour>
      <point x="2400.0" y="-64.0" type="line"/>
      <point x="3520.0" y="896.0" type="line"/>
      <point x="2718.0" y="1856.0" type="line"/>
      <point x="2410.0" y="1600.0" type="line"/>
      <point x="2824.0" y="1104.0" type="line"/>
      <point x="408.0" y="1104.0" type="line"/>
      <point x="338.0" y="688.0" type="line"/>
      <point x="2664.0" y="688.0" type="line"/>
      <point x="2140.0" y="240.0" type="line"/>
    </contour>
  </outline>
</glyph>
<glyph name="leftRightLongArrow" format="2">
  <advance width="4928.0"/>
  <unicode hex="27F7"/>
  <outline>
    <contour>
      <point x="1100.0" y="-64.0" type="line"/>
      <point x="1408.0" y="192.0" type="line"/>
      <point x="994.0" y="688.0" type="line"/>
      <point x="3816.0" y="688.0" type="line"/>
      <point x="3292.0" y="240.0" type="line"/>
      <point x="3552.0" y="-64.0" type="line"/>
      <point x="4672.0" y="896.0" type="line"/>
      <point x="3870.0" y="1856.0" type="line"/>
      <point x="3562.0" y="1600.0" type="line"/>
      <point x="3976.0" y="1104.0" type="line"/>
      <point x="1154.0" y="1104.0" type="line"/>
      <point x="1678.0" y="1552.0" type="line"/>
      <point x="1418.0" y="1856.0" type="line"/>
      <point x="298.0" y="896.0" type="line"/>
    </contour>
  </outline>
</glyph>
<glyph name="Ghook.1" format="2">
  <advance width="2464.0"/>
  <unicode hex="E004"/>
  <outline>
    <contour>
      <point x="2142.0" y="1372.0" type="line"/>
      <point x="2206.0" y="1748.0" type="line" smooth="yes"/>
      <point x="2235.0" y="1920.0"/>
      <point x="2384.0" y="1944.0"/>
      <point x="2530.0" y="1944.0" type="curve" smooth="yes"/>
      <point x="2580.0" y="1944.0"/>
      <point x="2624.0" y="1936.0"/>
      <point x="2674.0" y="1932.0" type="curve"/>
      <point x="2746.0" y="2364.0" type="line"/>
      <point x="2660.0" y="2384.0"/>
      <point x="2588.0" y="2396.0"/>
      <point x="2506.0" y="2396.0" type="curve" smooth="yes"/>
      <point x="2120.0" y="2396.0"/>
      <point x="1701.0" y="2168.0"/>
      <point x="1634.0" y="1748.0" type="curve" smooth="yes"/>
      <point x="1574.0" y="1372.0" type="line"/>
    </contour>
    <component base="G.1" xOffset="-2.0"/>
  </outline>
</glyph>
<glyph name="one.ss01" format="2">
  <advance width="1396.0"/>
  <unicode hex="E06C"/>
  <guideline x="516.0" y="1240.0" angle="0.0"/>
  <guideline x="-32.0" y="764.0" angle="0.0"/>
  <outline>
    <contour>
      <point x="1324.0" y="2048.0" type="line"/>
      <point x="764.0" y="2048.0" type="line"/>
      <point x="732.0" y="1856.0"/>
      <point x="508.0" y="1688.0"/>
      <point x="280.0" y="1688.0" type="curve"/>
      <point x="208.0" y="1252.0" type="line"/>
      <point x="428.0" y="1252.0"/>
      <point x="572.0" y="1328.0"/>
      <point x="640.0" y="1404.0" type="curve"/>
      <point x="660.0" y="1404.0" type="line"/>
      <point x="428.0" y="0.0" type="line"/>
      <point x="984.0" y="0.0" type="line"/>
    </contour>
  </outline>
</glyph>
<glyph name="bracketleft.sups" format="2">
  <advance width="828.0"/>
  <unicode hex="E0A7"/>
  <outline>
    <contour>
      <point x="200.0" y="736.0" type="line"/>
      <point x="794.0" y="736.0" type="line"/>
      <point x="840.0" y="1008.0" type="line"/>
      <point x="598.0" y="1008.0" type="line"/>
      <point x="788.0" y="2156.0" type="line"/>
      <point x="1030.0" y="2156.0" type="line"/>
      <point x="1074.0" y="2428.0" type="line"/>
      <point x="480.0" y="2428.0" type="line"/>
    </contour>
  </outline>
</glyph>
<glyph name="bracketright.sups" format="2">
  <advance width="828.0"/>
  <unicode hex="E0A8"/>
  <outline>
    <contour>
      <point x="22.0" y="736.0" type="line"/>
      <point x="616.0" y="736.0" type="line"/>
      <point x="896.0" y="2428.0" type="line"/>
      <point x="302.0" y="2428.0" type="line"/>
      <point x="258.0" y="2156.0" type="line"/>
      <point x="500.0" y="2156.0" type="line"/>
      <point x="310.0" y="1008.0" type="line"/>
      <point x="68.0" y="1008.0" type="line"/>
    </contour>
  </outline>
</glyph>
<glyph name="macrongravecomb.cn" format="2">
  <unicode hex="E0F7"/>
  <guideline x="-168.0" y="2174.0" angle="260.6"/>
  <outline>
    <contour>
      <point x="-246.0" y="2712.0" type="line"/>
      <point x="126.0" y="2712.0" type="line"/>
      <point x="-76.0" y="3098.0" type="line"/>
      <point x="-528.0" y="3098.0" type="line"/>
    </contour>
    <component base="macron" xOffset="-1228.0" yOffset="472.0"/>
  </outline>
</glyph>
<glyph name="commaaccent" format="2">
  <unicode hex="F6C3"/>
  <outline>
    <contour>
      <point x="-224.0" y="-640.0" type="line"/>
      <point x="152.0" y="-640.0" type="line"/>
      <point x="484.0" y="-162.0" type="line"/>
      <point x="-12.0" y="-162.0" type="line"/>
    </contour>
  </outline>
</glyph>
<glyph name="uni1F16A" format="2">
  <advance width="1914.0"/>
  <unicode hex="1F16A"/>
  <outline>
    <contour>
      <point x="570.0" y="1312.0" type="line"/>
      <point x="698.0" y="1312.0" type="line"/>
      <point x="1092.0" y="2048.0" type="line"/>
      <point x="908.0" y="2048.0" type="line"/>
      <point x="682.0" y="1598.0" type="line"/>
      <point x="604.0" y="2048.0" type="line"/>
      <point x="420.0" y="2048.0" type="line"/>
    </contour>
    <contour>
      <point x="218.0" y="1312.0" type="line"/>
      <point x="442.0" y="1312.0" type="line"/>
      <point x="564.0" y="2048.0" type="line"/>
      <point x="340.0" y="2048.0" type="line"/>
    </contour>
    <contour>
      <point x="826.0" y="1312.0" type="line"/>
      <point x="1050.0" y="1312.0" type="line"/>
      <point x="1172.0" y="2048.0" type="line"/>
      <point x="948.0" y="2048.0" type="line"/>
    </contour>
    <contour>
      <point x="1544.0" y="1308.0" type="curve" smooth="yes"/>
      <point x="1775.0" y="1308.0"/>
      <point x="1900.0" y="1404.0"/>
      <point x="1942.0" y="1614.0" type="curve"/>
      <point x="1736.0" y="1614.0" type="line"/>
      <point x="1713.0" y="1528.0"/>
      <point x="1663.0" y="1488.0"/>
      <point x="1572.0" y="1488.0" type="curve" smooth="yes"/>
      <point x="1466.0" y="1488.0"/>
      <point x="1427.0" y="1549.0"/>
      <point x="1448.0" y="1682.0" type="curve" smooth="yes"/>
      <point x="1471.0" y="1814.0"/>
      <point x="1530.0" y="1874.0"/>
      <point x="1636.0" y="1874.0" type="curve" smooth="yes"/>
      <point x="1725.0" y="1874.0"/>
      <point x="1763.0" y="1836.0"/>
      <point x="1758.0" y="1754.0" type="curve"/>
      <point x="1964.0" y="1754.0" type="line"/>
      <point x="1991.0" y="1953.0"/>
      <point x="1891.0" y="2054.0"/>
      <point x="1666.0" y="2054.0" type="curve" smooth="yes"/>
      <point x="1405.0" y="2054.0"/>
      <point x="1265.0" y="1937.0"/>
      <point x="1222.0" y="1682.0" type="curve" smooth="yes"/>
      <point x="1181.0" y="1426.0"/>
      <point x="1281.0" y="1308.0"/>
    </contour>
  </outline>
</glyph>
<glyph name="uni1F16B" format="2">
  <advance width="1864.0"/>
  <unicode hex="1F16B"/>
  <outline>
    <contour>
      <point x="570.0" y="1312.0" type="line"/>
      <point x="698.0" y="1312.0" type="line"/>
      <point x="1092.0" y="2048.0" type="line"/>
      <point x="908.0" y="2048.0" type="line"/>
      <point x="682.0" y="1598.0" type="line"/>
      <point x="604.0" y="2048.0" type="line"/>
      <point x="420.0" y="2048.0" type="line"/>
    </contour>
    <contour>
      <point x="218.0" y="1312.0" type="line"/>
      <point x="442.0" y="1312.0" type="line"/>
      <point x="564.0" y="2048.0" type="line"/>
      <point x="340.0" y="2048.0" type="line"/>
    </contour>
    <contour>
      <point x="826.0" y="1312.0" type="line"/>
      <point x="1050.0" y="1312.0" type="line"/>
      <point x="1172.0" y="2048.0" type="line"/>
      <point x="948.0" y="2048.0" type="line"/>
    </contour>
    <contour>
      <point x="1178.0" y="1312.0" type="line"/>
      <point x="1402.0" y="1312.0" type="line"/>
      <point x="1524.0" y="2048.0" type="line"/>
      <point x="1300.0" y="2048.0" type="line"/>
    </contour>
    <contour>
      <point x="1278.0" y="1312.0" type="line"/>
      <point x="1498.0" y="1312.0" type="line"/>
      <point x="1710.0" y="1312.0"/>
      <point x="1863.0" y="1440.0"/>
      <point x="1892.0" y="1620.0" type="curve" smooth="yes"/>
      <point x="1912.0" y="1736.0" type="line" smooth="yes"/>
      <point x="1942.0" y="1916.0"/>
      <point x="1832.0" y="2048.0"/>
      <point x="1620.0" y="2048.0" type="curve" smooth="yes"/>
      <point x="1400.0" y="2048.0" type="line"/>
      <point x="1370.0" y="1868.0" type="line"/>
      <point x="1590.0" y="1868.0" type="line" smooth="yes"/>
      <point x="1674.0" y="1868.0"/>
      <point x="1700.0" y="1812.0"/>
      <point x="1690.0" y="1744.0" type="curve" smooth="yes"/>
      <point x="1668.0" y="1612.0" type="line" smooth="yes"/>
      <point x="1657.0" y="1548.0"/>
      <point x="1607.0" y="1492.0"/>
      <point x="1528.0" y="1492.0" type="curve" smooth="yes"/>
      <point x="1308.0" y="1492.0" type="line"/>
    </contour>
  </outline>
</glyph>
<glyph name="G.1" format="2">
  <advance width="2192.0"/>
  <outline>
    <contour>
      <point x="996.0" y="-28.0" type="curve" smooth="yes"/>
      <point x="1235.0" y="-28.0"/>
      <point x="1433.0" y="64.0"/>
      <point x="1586.0" y="224.0" type="curve"/>
      <point x="1598.0" y="224.0" type="line"/>
      <point x="1582.0" y="0.0" type="line"/>
      <point x="1936.0" y="0.0" type="line"/>
      <point x="2126.0" y="1144.0" type="line"/>
      <point x="1202.0" y="1144.0" type="line"/>
      <point x="1136.0" y="748.0" type="line"/>
      <point x="1624.0" y="748.0" type="line"/>
      <point x="1510.0" y="758.0" type="line"/>
      <point x="1480.0" y="574.0"/>
      <point x="1334.0" y="456.0"/>
      <point x="1080.0" y="456.0" type="curve" smooth="yes"/>
      <point x="796.0" y="456.0"/>
      <point x="679.0" y="668.0"/>
      <point x="738.0" y="1028.0" type="curve" smooth="yes"/>
      <point x="798.0" y="1384.0"/>
      <point x="1002.0" y="1592.0"/>
      <point x="1282.0" y="1592.0" type="curve" smooth="yes"/>
      <point x="1456.0" y="1592.0"/>
      <point x="1573.0" y="1514.0"/>
      <point x="1584.0" y="1372.0" type="curve"/>
      <point x="2144.0" y="1372.0" type="line"/>
      <point x="2170.0" y="1786.0"/>
      <point x="1834.0" y="2076.0"/>
      <point x="1350.0" y="2076.0" type="curve" smooth="yes"/>
      <point x="798.0" y="2076.0"/>
      <point x="277.0" y="1696.0"/>
      <point x="166.0" y="1020.0" type="curve" smooth="yes"/>
      <point x="58.0" y="372.0"/>
      <point x="402.0" y="-28.0"/>
    </contour>
  </outline>
</glyph>
<glyph name="_part.t_base" format="2">
  <advance width="1140.0"/>
  <outline>
    <contour>
      <point x="428.0" y="1904.0" type="line"/>
      <point x="186.0" y="442.0" type="line"/>
      <point x="126.0" y="122.0"/>
      <point x="298.0" y="-41.0"/>
      <point x="686.0" y="-22.0" type="curve" smooth="yes"/>
      <point x="810.0" y="-16.0"/>
      <point x="906.0" y="10.0"/>
      <point x="962.0" y="26.0" type="curve"/>
      <point x="946.0" y="414.0" type="line"/>
      <point x="922.0" y="410.0"/>
      <point x="866.0" y="398.0"/>
      <point x="834.0" y="398.0" type="curve" smooth="yes"/>
      <point x="762.0" y="398.0"/>
      <point x="735.0" y="430.0"/>
      <point x="746.0" y="494.0" type="curve" smooth="yes"/>
      <point x="980.0" y="1904.0" type="line"/>
    </contour>
  </outline>
</glyph>
<glyph name="a.1" format="2">
  <advance width="1816.0"/>
  <note>
Based on /d
</note>
  <outline>
    <contour>
      <point x="566.0" y="-20.0" type="curve" smooth="yes"/>
      <point x="782.0" y="-20.0"/>
      <point x="948.0" y="96.0"/>
      <point x="1038.0" y="252.0" type="curve"/>
      <point x="1050.0" y="252.0" type="line"/>
      <point x="1008.0" y="0.0" type="line"/>
      <point x="1556.0" y="0.0" type="line"/>
      <point x="1812.0" y="1536.0" type="line"/>
      <point x="1258.0" y="1536.0" type="line"/>
      <point x="1214.0" y="1268.0" type="line"/>
      <point x="1206.0" y="1268.0" type="line"/>
      <point x="1172.0" y="1424.0"/>
      <point x="1050.0" y="1556.0"/>
      <point x="822.0" y="1556.0" type="curve" smooth="yes"/>
      <point x="518.0" y="1556.0"/>
      <point x="184.0" y="1324.0"/>
      <point x="92.0" y="768.0" type="curve"/>
      <point x="4.0" y="236.0"/>
      <point x="238.0" y="-20.0"/>
    </contour>
    <contour>
      <point x="840.0" y="404.0" type="curve" smooth="yes"/>
      <point x="688.0" y="404.0"/>
      <point x="622.0" y="540.0"/>
      <point x="660.0" y="768.0" type="curve" smooth="yes"/>
      <point x="698.0" y="996.0"/>
      <point x="808.0" y="1132.0"/>
      <point x="960.0" y="1132.0" type="curve" smooth="yes"/>
      <point x="1112.0" y="1132.0"/>
      <point x="1182.0" y="996.0"/>
      <point x="1144.0" y="768.0" type="curve"/>
      <point x="1108.0" y="544.0"/>
      <point x="992.0" y="404.0"/>
    </contour>
  </outline>
</glyph>
<glyph name="cyrillictail.cn" format="2">
  <advance width="876.0"/>
  <outline>
    <contour>
      <point x="600.0" y="384.0" type="line"/>
      <point x="192.0" y="384.0" type="line"/>
      <point x="144.0" y="72.0" type="line"/>
      <point x="105.0" y="-168.0"/>
      <point x="-15.0" y="-276.0"/>
      <point x="-92.0" y="-384.0" type="curve"/>
      <point x="128.0" y="-524.0" type="line"/>
      <point x="333.0" y="-396.0"/>
      <point x="521.0" y="-136.0"/>
      <point x="556.0" y="112.0" type="curve"/>
    </contour>
  </outline>
</glyph>
<glyph name="dieresisacutecomb.cn" format="2">
  <outline>
    <contour>
      <point x="-442.0" y="2712.0" type="line"/>
      <point x="-70.0" y="2712.0" type="line"/>
      <point x="340.0" y="3098.0" type="line"/>
      <point x="-112.0" y="3098.0" type="line"/>
    </contour>
    <component base="casedieresis.cn" xScale="0.93458" yScale="0.90275" xOffset="-1214.0" yOffset="204.0"/>
  </outline>
</glyph>
<glyph name="macronacutecomb.cn" format="2">
  <outline>
    <contour>
      <point x="-522.0" y="2712.0" type="line"/>
      <point x="-150.0" y="2712.0" type="line"/>
      <point x="260.0" y="3098.0" type="line"/>
      <point x="-192.0" y="3098.0" type="line"/>
    </contour>
    <component base="macron" xOffset="-1472.0" yOffset="472.0"/>
  </outline>
</glyph>
<glyph name="rdescend" format="2">
  <advance width="1220.0"/>
  <outline>
    <contour>
      <point x="-88.0" y="-576.0" type="line"/>
      <point x="468.0" y="-576.0" type="line"/>
      <point x="564.0" y="0.0" type="line"/>
      <point x="12.0" y="0.0" type="line"/>
    </contour>
    <component base="r"/>
  </outline>
</glyph>
<glyph name="tildeacutecomb.uc" format="2">
  <outline>
    <contour>
      <point x="-442.0" y="2712.0" type="line"/>
      <point x="-70.0" y="2712.0" type="line"/>
      <point x="340.0" y="3098.0" type="line"/>
      <point x="-112.0" y="3098.0" type="line"/>
    </contour>
    <component base="tilde" xScale="0.93458" yScale="0.88695" xOffset="-1122.0" yOffset="680.0"/>
  </outline>
</glyph>
